<?xml version="1.0" encoding="utf-8" standalone="no"?>
<!DOCTYPE svg PUBLIC "-//W3C//DTD SVG 1.1//EN"
  "http://www.w3.org/Graphics/SVG/1.1/DTD/svg11.dtd">
<svg xmlns:xlink="http://www.w3.org/1999/xlink" width="360pt" height="144pt" viewBox="0 0 360 144" xmlns="http://www.w3.org/2000/svg" version="1.1">
 <metadata>
  <rdf:RDF xmlns:dc="http://purl.org/dc/elements/1.1/" xmlns:cc="http://creativecommons.org/ns#" xmlns:rdf="http://www.w3.org/1999/02/22-rdf-syntax-ns#">
   <cc:Work>
    <dc:type rdf:resource="http://purl.org/dc/dcmitype/StillImage"/>
    <dc:date>2025-04-09T10:30:00.171898</dc:date>
    <dc:format>image/svg+xml</dc:format>
    <dc:creator>
     <cc:Agent>
      <dc:title>Matplotlib v3.10.1, https://matplotlib.org/</dc:title>
     </cc:Agent>
    </dc:creator>
   </cc:Work>
  </rdf:RDF>
 </metadata>
 <defs>
  <style type="text/css">*{stroke-linejoin: round; stroke-linecap: butt}</style>
 </defs>
 <g id="figure_1">
  <g id="patch_1">
   <path d="M 0 144 
L 360 144 
L 360 0 
L 0 0 
z
" style="fill: #ffffff"/>
  </g>
  <g id="axes_1">
   <g id="patch_2">
    <path d="M 45 128.16 
L 324 128.16 
L 324 17.28 
L 45 17.28 
z
" style="fill: #eaeaf2"/>
   </g>
   <g id="matplotlib.axis_1">
    <g id="xtick_1">
     <g id="text_1">
      <!-- mLN -->
      <g style="fill: #262626" transform="translate(78.963437 146.018281) scale(0.11 -0.11)">
       <defs>
        <path id="DejaVuSans-6d" d="M 3328 2828 
Q 3544 3216 3844 3400 
Q 4144 3584 4550 3584 
Q 5097 3584 5394 3201 
Q 5691 2819 5691 2113 
L 5691 0 
L 5113 0 
L 5113 2094 
Q 5113 2597 4934 2840 
Q 4756 3084 4391 3084 
Q 3944 3084 3684 2787 
Q 3425 2491 3425 1978 
L 3425 0 
L 2847 0 
L 2847 2094 
Q 2847 2600 2669 2842 
Q 2491 3084 2119 3084 
Q 1678 3084 1418 2786 
Q 1159 2488 1159 1978 
L 1159 0 
L 581 0 
L 581 3500 
L 1159 3500 
L 1159 2956 
Q 1356 3278 1631 3431 
Q 1906 3584 2284 3584 
Q 2666 3584 2933 3390 
Q 3200 3197 3328 2828 
z
" transform="scale(0.015625)"/>
        <path id="DejaVuSans-4c" d="M 628 4666 
L 1259 4666 
L 1259 531 
L 3531 531 
L 3531 0 
L 628 0 
L 628 4666 
z
" transform="scale(0.015625)"/>
        <path id="DejaVuSans-4e" d="M 628 4666 
L 1478 4666 
L 3547 763 
L 3547 4666 
L 4159 4666 
L 4159 0 
L 3309 0 
L 1241 3903 
L 1241 0 
L 628 0 
L 628 4666 
z
" transform="scale(0.015625)"/>
       </defs>
       <use xlink:href="#DejaVuSans-6d"/>
       <use xlink:href="#DejaVuSans-4c" transform="translate(97.412109 0)"/>
       <use xlink:href="#DejaVuSans-4e" transform="translate(153.125 0)"/>
      </g>
     </g>
    </g>
    <g id="xtick_2">
     <g id="text_2">
      <!-- PeyersPatch -->
      <g style="fill: #262626" transform="translate(151.127891 146.018281) scale(0.11 -0.11)">
       <defs>
        <path id="DejaVuSans-50" d="M 1259 4147 
L 1259 2394 
L 2053 2394 
Q 2494 2394 2734 2622 
Q 2975 2850 2975 3272 
Q 2975 3691 2734 3919 
Q 2494 4147 2053 4147 
L 1259 4147 
z
M 628 4666 
L 2053 4666 
Q 2838 4666 3239 4311 
Q 3641 3956 3641 3272 
Q 3641 2581 3239 2228 
Q 2838 1875 2053 1875 
L 1259 1875 
L 1259 0 
L 628 0 
L 628 4666 
z
" transform="scale(0.015625)"/>
        <path id="DejaVuSans-65" d="M 3597 1894 
L 3597 1613 
L 953 1613 
Q 991 1019 1311 708 
Q 1631 397 2203 397 
Q 2534 397 2845 478 
Q 3156 559 3463 722 
L 3463 178 
Q 3153 47 2828 -22 
Q 2503 -91 2169 -91 
Q 1331 -91 842 396 
Q 353 884 353 1716 
Q 353 2575 817 3079 
Q 1281 3584 2069 3584 
Q 2775 3584 3186 3129 
Q 3597 2675 3597 1894 
z
M 3022 2063 
Q 3016 2534 2758 2815 
Q 2500 3097 2075 3097 
Q 1594 3097 1305 2825 
Q 1016 2553 972 2059 
L 3022 2063 
z
" transform="scale(0.015625)"/>
        <path id="DejaVuSans-79" d="M 2059 -325 
Q 1816 -950 1584 -1140 
Q 1353 -1331 966 -1331 
L 506 -1331 
L 506 -850 
L 844 -850 
Q 1081 -850 1212 -737 
Q 1344 -625 1503 -206 
L 1606 56 
L 191 3500 
L 800 3500 
L 1894 763 
L 2988 3500 
L 3597 3500 
L 2059 -325 
z
" transform="scale(0.015625)"/>
        <path id="DejaVuSans-72" d="M 2631 2963 
Q 2534 3019 2420 3045 
Q 2306 3072 2169 3072 
Q 1681 3072 1420 2755 
Q 1159 2438 1159 1844 
L 1159 0 
L 581 0 
L 581 3500 
L 1159 3500 
L 1159 2956 
Q 1341 3275 1631 3429 
Q 1922 3584 2338 3584 
Q 2397 3584 2469 3576 
Q 2541 3569 2628 3553 
L 2631 2963 
z
" transform="scale(0.015625)"/>
        <path id="DejaVuSans-73" d="M 2834 3397 
L 2834 2853 
Q 2591 2978 2328 3040 
Q 2066 3103 1784 3103 
Q 1356 3103 1142 2972 
Q 928 2841 928 2578 
Q 928 2378 1081 2264 
Q 1234 2150 1697 2047 
L 1894 2003 
Q 2506 1872 2764 1633 
Q 3022 1394 3022 966 
Q 3022 478 2636 193 
Q 2250 -91 1575 -91 
Q 1294 -91 989 -36 
Q 684 19 347 128 
L 347 722 
Q 666 556 975 473 
Q 1284 391 1588 391 
Q 1994 391 2212 530 
Q 2431 669 2431 922 
Q 2431 1156 2273 1281 
Q 2116 1406 1581 1522 
L 1381 1569 
Q 847 1681 609 1914 
Q 372 2147 372 2553 
Q 372 3047 722 3315 
Q 1072 3584 1716 3584 
Q 2034 3584 2315 3537 
Q 2597 3491 2834 3397 
z
" transform="scale(0.015625)"/>
        <path id="DejaVuSans-61" d="M 2194 1759 
Q 1497 1759 1228 1600 
Q 959 1441 959 1056 
Q 959 750 1161 570 
Q 1363 391 1709 391 
Q 2188 391 2477 730 
Q 2766 1069 2766 1631 
L 2766 1759 
L 2194 1759 
z
M 3341 1997 
L 3341 0 
L 2766 0 
L 2766 531 
Q 2569 213 2275 61 
Q 1981 -91 1556 -91 
Q 1019 -91 701 211 
Q 384 513 384 1019 
Q 384 1609 779 1909 
Q 1175 2209 1959 2209 
L 2766 2209 
L 2766 2266 
Q 2766 2663 2505 2880 
Q 2244 3097 1772 3097 
Q 1472 3097 1187 3025 
Q 903 2953 641 2809 
L 641 3341 
Q 956 3463 1253 3523 
Q 1550 3584 1831 3584 
Q 2591 3584 2966 3190 
Q 3341 2797 3341 1997 
z
" transform="scale(0.015625)"/>
        <path id="DejaVuSans-74" d="M 1172 4494 
L 1172 3500 
L 2356 3500 
L 2356 3053 
L 1172 3053 
L 1172 1153 
Q 1172 725 1289 603 
Q 1406 481 1766 481 
L 2356 481 
L 2356 0 
L 1766 0 
Q 1100 0 847 248 
Q 594 497 594 1153 
L 594 3053 
L 172 3053 
L 172 3500 
L 594 3500 
L 594 4494 
L 1172 4494 
z
" transform="scale(0.015625)"/>
        <path id="DejaVuSans-63" d="M 3122 3366 
L 3122 2828 
Q 2878 2963 2633 3030 
Q 2388 3097 2138 3097 
Q 1578 3097 1268 2742 
Q 959 2388 959 1747 
Q 959 1106 1268 751 
Q 1578 397 2138 397 
Q 2388 397 2633 464 
Q 2878 531 3122 666 
L 3122 134 
Q 2881 22 2623 -34 
Q 2366 -91 2075 -91 
Q 1284 -91 818 406 
Q 353 903 353 1747 
Q 353 2603 823 3093 
Q 1294 3584 2113 3584 
Q 2378 3584 2631 3529 
Q 2884 3475 3122 3366 
z
" transform="scale(0.015625)"/>
        <path id="DejaVuSans-68" d="M 3513 2113 
L 3513 0 
L 2938 0 
L 2938 2094 
Q 2938 2591 2744 2837 
Q 2550 3084 2163 3084 
Q 1697 3084 1428 2787 
Q 1159 2491 1159 1978 
L 1159 0 
L 581 0 
L 581 4863 
L 1159 4863 
L 1159 2956 
Q 1366 3272 1645 3428 
Q 1925 3584 2291 3584 
Q 2894 3584 3203 3211 
Q 3513 2838 3513 2113 
z
" transform="scale(0.015625)"/>
       </defs>
       <use xlink:href="#DejaVuSans-50"/>
       <use xlink:href="#DejaVuSans-65" transform="translate(56.677734 0)"/>
       <use xlink:href="#DejaVuSans-79" transform="translate(118.201172 0)"/>
       <use xlink:href="#DejaVuSans-65" transform="translate(177.380859 0)"/>
       <use xlink:href="#DejaVuSans-72" transform="translate(238.904297 0)"/>
       <use xlink:href="#DejaVuSans-73" transform="translate(280.017578 0)"/>
       <use xlink:href="#DejaVuSans-50" transform="translate(332.117188 0)"/>
       <use xlink:href="#DejaVuSans-61" transform="translate(387.919922 0)"/>
       <use xlink:href="#DejaVuSans-74" transform="translate(449.199219 0)"/>
       <use xlink:href="#DejaVuSans-63" transform="translate(488.408203 0)"/>
       <use xlink:href="#DejaVuSans-68" transform="translate(543.388672 0)"/>
      </g>
     </g>
    </g>
    <g id="xtick_3">
     <g id="text_3">
      <!-- Colon -->
      <g style="fill: #262626" transform="translate(261.915234 146.018281) scale(0.11 -0.11)">
       <defs>
        <path id="DejaVuSans-43" d="M 4122 4306 
L 4122 3641 
Q 3803 3938 3442 4084 
Q 3081 4231 2675 4231 
Q 1875 4231 1450 3742 
Q 1025 3253 1025 2328 
Q 1025 1406 1450 917 
Q 1875 428 2675 428 
Q 3081 428 3442 575 
Q 3803 722 4122 1019 
L 4122 359 
Q 3791 134 3420 21 
Q 3050 -91 2638 -91 
Q 1578 -91 968 557 
Q 359 1206 359 2328 
Q 359 3453 968 4101 
Q 1578 4750 2638 4750 
Q 3056 4750 3426 4639 
Q 3797 4528 4122 4306 
z
" transform="scale(0.015625)"/>
        <path id="DejaVuSans-6f" d="M 1959 3097 
Q 1497 3097 1228 2736 
Q 959 2375 959 1747 
Q 959 1119 1226 758 
Q 1494 397 1959 397 
Q 2419 397 2687 759 
Q 2956 1122 2956 1747 
Q 2956 2369 2687 2733 
Q 2419 3097 1959 3097 
z
M 1959 3584 
Q 2709 3584 3137 3096 
Q 3566 2609 3566 1747 
Q 3566 888 3137 398 
Q 2709 -91 1959 -91 
Q 1206 -91 779 398 
Q 353 888 353 1747 
Q 353 2609 779 3096 
Q 1206 3584 1959 3584 
z
" transform="scale(0.015625)"/>
        <path id="DejaVuSans-6c" d="M 603 4863 
L 1178 4863 
L 1178 0 
L 603 0 
L 603 4863 
z
" transform="scale(0.015625)"/>
        <path id="DejaVuSans-6e" d="M 3513 2113 
L 3513 0 
L 2938 0 
L 2938 2094 
Q 2938 2591 2744 2837 
Q 2550 3084 2163 3084 
Q 1697 3084 1428 2787 
Q 1159 2491 1159 1978 
L 1159 0 
L 581 0 
L 581 3500 
L 1159 3500 
L 1159 2956 
Q 1366 3272 1645 3428 
Q 1925 3584 2291 3584 
Q 2894 3584 3203 3211 
Q 3513 2838 3513 2113 
z
" transform="scale(0.015625)"/>
       </defs>
       <use xlink:href="#DejaVuSans-43"/>
       <use xlink:href="#DejaVuSans-6f" transform="translate(69.824219 0)"/>
       <use xlink:href="#DejaVuSans-6c" transform="translate(131.005859 0)"/>
       <use xlink:href="#DejaVuSans-6f" transform="translate(158.789062 0)"/>
       <use xlink:href="#DejaVuSans-6e" transform="translate(219.970703 0)"/>
      </g>
     </g>
    </g>
    <g id="text_4">
     <!-- Tissue -->
     <g style="fill: #262626" transform="translate(165.610312 161.424062) scale(0.12 -0.12)">
      <defs>
       <path id="DejaVuSans-54" d="M -19 4666 
L 3928 4666 
L 3928 4134 
L 2272 4134 
L 2272 0 
L 1638 0 
L 1638 4134 
L -19 4134 
L -19 4666 
z
" transform="scale(0.015625)"/>
       <path id="DejaVuSans-69" d="M 603 3500 
L 1178 3500 
L 1178 0 
L 603 0 
L 603 3500 
z
M 603 4863 
L 1178 4863 
L 1178 4134 
L 603 4134 
L 603 4863 
z
" transform="scale(0.015625)"/>
       <path id="DejaVuSans-75" d="M 544 1381 
L 544 3500 
L 1119 3500 
L 1119 1403 
Q 1119 906 1312 657 
Q 1506 409 1894 409 
Q 2359 409 2629 706 
Q 2900 1003 2900 1516 
L 2900 3500 
L 3475 3500 
L 3475 0 
L 2900 0 
L 2900 538 
Q 2691 219 2414 64 
Q 2138 -91 1772 -91 
Q 1169 -91 856 284 
Q 544 659 544 1381 
z
M 1991 3584 
L 1991 3584 
z
" transform="scale(0.015625)"/>
      </defs>
      <use xlink:href="#DejaVuSans-54"/>
      <use xlink:href="#DejaVuSans-69" transform="translate(57.958984 0)"/>
      <use xlink:href="#DejaVuSans-73" transform="translate(85.742188 0)"/>
      <use xlink:href="#DejaVuSans-73" transform="translate(137.841797 0)"/>
      <use xlink:href="#DejaVuSans-75" transform="translate(189.941406 0)"/>
      <use xlink:href="#DejaVuSans-65" transform="translate(253.320312 0)"/>
     </g>
    </g>
   </g>
   <g id="matplotlib.axis_2">
    <g id="ytick_1">
     <g id="line2d_1">
      <path d="M 45 128.16 
L 324 128.16 
" clip-path="url(#pa3b7d12f83)" style="fill: none; stroke: #ffffff; stroke-linecap: round"/>
     </g>
     <g id="text_5">
      <!-- 0 -->
      <g style="fill: #262626" transform="translate(28.50125 132.339141) scale(0.11 -0.11)">
       <defs>
        <path id="DejaVuSans-30" d="M 2034 4250 
Q 1547 4250 1301 3770 
Q 1056 3291 1056 2328 
Q 1056 1369 1301 889 
Q 1547 409 2034 409 
Q 2525 409 2770 889 
Q 3016 1369 3016 2328 
Q 3016 3291 2770 3770 
Q 2525 4250 2034 4250 
z
M 2034 4750 
Q 2819 4750 3233 4129 
Q 3647 3509 3647 2328 
Q 3647 1150 3233 529 
Q 2819 -91 2034 -91 
Q 1250 -91 836 529 
Q 422 1150 422 2328 
Q 422 3509 836 4129 
Q 1250 4750 2034 4750 
z
" transform="scale(0.015625)"/>
       </defs>
       <use xlink:href="#DejaVuSans-30"/>
      </g>
     </g>
    </g>
    <g id="ytick_2">
     <g id="line2d_2">
      <path d="M 45 96.48 
L 324 96.48 
" clip-path="url(#pa3b7d12f83)" style="fill: none; stroke: #ffffff; stroke-linecap: round"/>
     </g>
     <g id="text_6">
      <!-- 2 -->
      <g style="fill: #262626" transform="translate(28.50125 100.659141) scale(0.11 -0.11)">
       <defs>
        <path id="DejaVuSans-32" d="M 1228 531 
L 3431 531 
L 3431 0 
L 469 0 
L 469 531 
Q 828 903 1448 1529 
Q 2069 2156 2228 2338 
Q 2531 2678 2651 2914 
Q 2772 3150 2772 3378 
Q 2772 3750 2511 3984 
Q 2250 4219 1831 4219 
Q 1534 4219 1204 4116 
Q 875 4013 500 3803 
L 500 4441 
Q 881 4594 1212 4672 
Q 1544 4750 1819 4750 
Q 2544 4750 2975 4387 
Q 3406 4025 3406 3419 
Q 3406 3131 3298 2873 
Q 3191 2616 2906 2266 
Q 2828 2175 2409 1742 
Q 1991 1309 1228 531 
z
" transform="scale(0.015625)"/>
       </defs>
       <use xlink:href="#DejaVuSans-32"/>
      </g>
     </g>
    </g>
    <g id="ytick_3">
     <g id="line2d_3">
      <path d="M 45 64.8 
L 324 64.8 
" clip-path="url(#pa3b7d12f83)" style="fill: none; stroke: #ffffff; stroke-linecap: round"/>
     </g>
     <g id="text_7">
      <!-- 4 -->
      <g style="fill: #262626" transform="translate(28.50125 68.979141) scale(0.11 -0.11)">
       <defs>
        <path id="DejaVuSans-34" d="M 2419 4116 
L 825 1625 
L 2419 1625 
L 2419 4116 
z
M 2253 4666 
L 3047 4666 
L 3047 1625 
L 3713 1625 
L 3713 1100 
L 3047 1100 
L 3047 0 
L 2419 0 
L 2419 1100 
L 313 1100 
L 313 1709 
L 2253 4666 
z
" transform="scale(0.015625)"/>
       </defs>
       <use xlink:href="#DejaVuSans-34"/>
      </g>
     </g>
    </g>
    <g id="ytick_4">
     <g id="line2d_4">
      <path d="M 45 33.12 
L 324 33.12 
" clip-path="url(#pa3b7d12f83)" style="fill: none; stroke: #ffffff; stroke-linecap: round"/>
     </g>
     <g id="text_8">
      <!-- 6 -->
      <g style="fill: #262626" transform="translate(28.50125 37.299141) scale(0.11 -0.11)">
       <defs>
        <path id="DejaVuSans-36" d="M 2113 2584 
Q 1688 2584 1439 2293 
Q 1191 2003 1191 1497 
Q 1191 994 1439 701 
Q 1688 409 2113 409 
Q 2538 409 2786 701 
Q 3034 994 3034 1497 
Q 3034 2003 2786 2293 
Q 2538 2584 2113 2584 
z
M 3366 4563 
L 3366 3988 
Q 3128 4100 2886 4159 
Q 2644 4219 2406 4219 
Q 1781 4219 1451 3797 
Q 1122 3375 1075 2522 
Q 1259 2794 1537 2939 
Q 1816 3084 2150 3084 
Q 2853 3084 3261 2657 
Q 3669 2231 3669 1497 
Q 3669 778 3244 343 
Q 2819 -91 2113 -91 
Q 1303 -91 875 529 
Q 447 1150 447 2328 
Q 447 3434 972 4092 
Q 1497 4750 2381 4750 
Q 2619 4750 2861 4703 
Q 3103 4656 3366 4563 
z
" transform="scale(0.015625)"/>
       </defs>
       <use xlink:href="#DejaVuSans-36"/>
      </g>
     </g>
    </g>
    <g id="text_9">
     <!-- Log_Copies -->
     <g style="fill: #262626" transform="translate(21.671875 106.592813) rotate(-90) scale(0.12 -0.12)">
      <defs>
       <path id="DejaVuSans-67" d="M 2906 1791 
Q 2906 2416 2648 2759 
Q 2391 3103 1925 3103 
Q 1463 3103 1205 2759 
Q 947 2416 947 1791 
Q 947 1169 1205 825 
Q 1463 481 1925 481 
Q 2391 481 2648 825 
Q 2906 1169 2906 1791 
z
M 3481 434 
Q 3481 -459 3084 -895 
Q 2688 -1331 1869 -1331 
Q 1566 -1331 1297 -1286 
Q 1028 -1241 775 -1147 
L 775 -588 
Q 1028 -725 1275 -790 
Q 1522 -856 1778 -856 
Q 2344 -856 2625 -561 
Q 2906 -266 2906 331 
L 2906 616 
Q 2728 306 2450 153 
Q 2172 0 1784 0 
Q 1141 0 747 490 
Q 353 981 353 1791 
Q 353 2603 747 3093 
Q 1141 3584 1784 3584 
Q 2172 3584 2450 3431 
Q 2728 3278 2906 2969 
L 2906 3500 
L 3481 3500 
L 3481 434 
z
" transform="scale(0.015625)"/>
       <path id="DejaVuSans-5f" d="M 3263 -1063 
L 3263 -1509 
L -63 -1509 
L -63 -1063 
L 3263 -1063 
z
" transform="scale(0.015625)"/>
       <path id="DejaVuSans-70" d="M 1159 525 
L 1159 -1331 
L 581 -1331 
L 581 3500 
L 1159 3500 
L 1159 2969 
Q 1341 3281 1617 3432 
Q 1894 3584 2278 3584 
Q 2916 3584 3314 3078 
Q 3713 2572 3713 1747 
Q 3713 922 3314 415 
Q 2916 -91 2278 -91 
Q 1894 -91 1617 61 
Q 1341 213 1159 525 
z
M 3116 1747 
Q 3116 2381 2855 2742 
Q 2594 3103 2138 3103 
Q 1681 3103 1420 2742 
Q 1159 2381 1159 1747 
Q 1159 1113 1420 752 
Q 1681 391 2138 391 
Q 2594 391 2855 752 
Q 3116 1113 3116 1747 
z
" transform="scale(0.015625)"/>
      </defs>
      <use xlink:href="#DejaVuSans-4c"/>
      <use xlink:href="#DejaVuSans-6f" transform="translate(53.962891 0)"/>
      <use xlink:href="#DejaVuSans-67" transform="translate(115.144531 0)"/>
      <use xlink:href="#DejaVuSans-5f" transform="translate(178.621094 0)"/>
      <use xlink:href="#DejaVuSans-43" transform="translate(228.621094 0)"/>
      <use xlink:href="#DejaVuSans-6f" transform="translate(298.445312 0)"/>
      <use xlink:href="#DejaVuSans-70" transform="translate(359.626953 0)"/>
      <use xlink:href="#DejaVuSans-69" transform="translate(423.103516 0)"/>
      <use xlink:href="#DejaVuSans-65" transform="translate(450.886719 0)"/>
      <use xlink:href="#DejaVuSans-73" transform="translate(512.410156 0)"/>
     </g>
    </g>
   </g>
   <g id="FillBetweenPolyCollection_1">
    <defs>
     <path id="m26265bfd64" d="M 76.636225 -63.57026 
L 69.163775 -63.57026 
L 68.93232 -63.759675 
L 68.697665 -63.94909 
L 68.460645 -64.138505 
L 68.222092 -64.32792 
L 67.982824 -64.517334 
L 67.743628 -64.706749 
L 67.505238 -64.896164 
L 67.268326 -65.085579 
L 67.03348 -65.274994 
L 66.801192 -65.464409 
L 66.571842 -65.653823 
L 66.345693 -65.843238 
L 66.122874 -66.032653 
L 65.903379 -66.222068 
L 65.687062 -66.411483 
L 65.473639 -66.600898 
L 65.262688 -66.790313 
L 65.053659 -66.979727 
L 64.845882 -67.169142 
L 64.638583 -67.358557 
L 64.430895 -67.547972 
L 64.221888 -67.737387 
L 64.010578 -67.926802 
L 63.795962 -68.116216 
L 63.577034 -68.305631 
L 63.352818 -68.495046 
L 63.122391 -68.684461 
L 62.884907 -68.873876 
L 62.639628 -69.063291 
L 62.385938 -69.252706 
L 62.123374 -69.44212 
L 61.851636 -69.631535 
L 61.570604 -69.82095 
L 61.280354 -70.010365 
L 60.981159 -70.19978 
L 60.673496 -70.389195 
L 60.358044 -70.57861 
L 60.035682 -70.768024 
L 59.707474 -70.957439 
L 59.374666 -71.146854 
L 59.038662 -71.336269 
L 58.70101 -71.525684 
L 58.363379 -71.715099 
L 58.027538 -71.904513 
L 57.695331 -72.093928 
L 57.368653 -72.283343 
L 57.049422 -72.472758 
L 56.73956 -72.662173 
L 56.440966 -72.851588 
L 56.155495 -73.041003 
L 55.884938 -73.230417 
L 55.631003 -73.419832 
L 55.395302 -73.609247 
L 55.179337 -73.798662 
L 54.984487 -73.988077 
L 54.812006 -74.177492 
L 54.663013 -74.366906 
L 54.538491 -74.556321 
L 54.439285 -74.745736 
L 54.366106 -74.935151 
L 54.319529 -75.124566 
L 54.3 -75.313981 
L 54.307838 -75.503396 
L 54.343241 -75.69281 
L 54.406289 -75.882225 
L 54.496952 -76.07164 
L 54.615088 -76.261055 
L 54.760454 -76.45047 
L 54.932704 -76.639885 
L 55.131392 -76.829299 
L 55.355973 -77.018714 
L 55.605809 -77.208129 
L 55.880162 -77.397544 
L 56.178198 -77.586959 
L 56.498989 -77.776374 
L 56.841509 -77.965789 
L 57.204637 -78.155203 
L 57.587158 -78.344618 
L 57.987766 -78.534033 
L 58.405063 -78.723448 
L 58.837568 -78.912863 
L 59.283722 -79.102278 
L 59.74189 -79.291692 
L 60.210378 -79.481107 
L 60.687434 -79.670522 
L 61.171267 -79.859937 
L 61.660053 -80.049352 
L 62.151954 -80.238767 
L 62.645129 -80.428182 
L 63.137751 -80.617596 
L 63.62802 -80.807011 
L 64.114182 -80.996426 
L 64.594539 -81.185841 
L 65.06747 -81.375256 
L 65.531438 -81.564671 
L 65.985009 -81.754086 
L 66.426857 -81.9435 
L 66.855778 -82.132915 
L 67.270698 -82.32233 
L 78.529302 -82.32233 
L 78.529302 -82.32233 
L 78.944222 -82.132915 
L 79.373143 -81.9435 
L 79.814991 -81.754086 
L 80.268562 -81.564671 
L 80.73253 -81.375256 
L 81.205461 -81.185841 
L 81.685818 -80.996426 
L 82.17198 -80.807011 
L 82.662249 -80.617596 
L 83.154871 -80.428182 
L 83.648046 -80.238767 
L 84.139947 -80.049352 
L 84.628733 -79.859937 
L 85.112566 -79.670522 
L 85.589622 -79.481107 
L 86.05811 -79.291692 
L 86.516278 -79.102278 
L 86.962432 -78.912863 
L 87.394937 -78.723448 
L 87.812234 -78.534033 
L 88.212842 -78.344618 
L 88.595363 -78.155203 
L 88.958491 -77.965789 
L 89.301011 -77.776374 
L 89.621802 -77.586959 
L 89.919838 -77.397544 
L 90.194191 -77.208129 
L 90.444027 -77.018714 
L 90.668608 -76.829299 
L 90.867296 -76.639885 
L 91.039546 -76.45047 
L 91.184912 -76.261055 
L 91.303048 -76.07164 
L 91.393711 -75.882225 
L 91.456759 -75.69281 
L 91.492162 -75.503396 
L 91.5 -75.313981 
L 91.480471 -75.124566 
L 91.433894 -74.935151 
L 91.360715 -74.745736 
L 91.261509 -74.556321 
L 91.136987 -74.366906 
L 90.987994 -74.177492 
L 90.815513 -73.988077 
L 90.620663 -73.798662 
L 90.404698 -73.609247 
L 90.168997 -73.419832 
L 89.915062 -73.230417 
L 89.644505 -73.041003 
L 89.359034 -72.851588 
L 89.06044 -72.662173 
L 88.750578 -72.472758 
L 88.431347 -72.283343 
L 88.104669 -72.093928 
L 87.772462 -71.904513 
L 87.436621 -71.715099 
L 87.09899 -71.525684 
L 86.761338 -71.336269 
L 86.425334 -71.146854 
L 86.092526 -70.957439 
L 85.764318 -70.768024 
L 85.441956 -70.57861 
L 85.126504 -70.389195 
L 84.818841 -70.19978 
L 84.519646 -70.010365 
L 84.229396 -69.82095 
L 83.948364 -69.631535 
L 83.676626 -69.44212 
L 83.414062 -69.252706 
L 83.160372 -69.063291 
L 82.915093 -68.873876 
L 82.677609 -68.684461 
L 82.447182 -68.495046 
L 82.222966 -68.305631 
L 82.004038 -68.116216 
L 81.789422 -67.926802 
L 81.578112 -67.737387 
L 81.369105 -67.547972 
L 81.161417 -67.358557 
L 80.954118 -67.169142 
L 80.746341 -66.979727 
L 80.537312 -66.790313 
L 80.326361 -66.600898 
L 80.112938 -66.411483 
L 79.896621 -66.222068 
L 79.677126 -66.032653 
L 79.454307 -65.843238 
L 79.228158 -65.653823 
L 78.998808 -65.464409 
L 78.76652 -65.274994 
L 78.531674 -65.085579 
L 78.294762 -64.896164 
L 78.056372 -64.706749 
L 77.817176 -64.517334 
L 77.577908 -64.32792 
L 77.339355 -64.138505 
L 77.102335 -63.94909 
L 76.86768 -63.759675 
L 76.636225 -63.57026 
z
" style="stroke: #000000"/>
    </defs>
    <g clip-path="url(#pa3b7d12f83)">
     <use xlink:href="#m26265bfd64" x="0" y="144" style="fill: #bcdbe8; stroke: #000000"/>
    </g>
   </g>
   <g id="FillBetweenPolyCollection_2">
    <defs>
     <path id="mfe104d992a" d="M 117.407497 -66.705906 
L 102.792503 -66.705906 
L 102.368826 -67.051033 
L 101.940109 -67.39616 
L 101.508037 -67.741287 
L 101.074376 -68.086415 
L 100.640957 -68.431542 
L 100.209655 -68.776669 
L 99.78237 -69.121796 
L 99.361005 -69.466923 
L 98.94744 -69.812051 
L 98.543516 -70.157178 
L 98.151006 -70.502305 
L 97.771592 -70.847432 
L 97.406845 -71.19256 
L 97.0582 -71.537687 
L 96.72694 -71.882814 
L 96.414171 -72.227941 
L 96.120812 -72.573069 
L 95.847577 -72.918196 
L 95.594966 -73.263323 
L 95.363255 -73.60845 
L 95.152492 -73.953577 
L 94.962497 -74.298705 
L 94.79286 -74.643832 
L 94.642952 -74.988959 
L 94.511929 -75.334086 
L 94.398748 -75.679214 
L 94.302182 -76.024341 
L 94.220837 -76.369468 
L 94.153173 -76.714595 
L 94.097533 -77.059723 
L 94.052161 -77.40485 
L 94.015236 -77.749977 
L 93.984895 -78.095104 
L 93.959268 -78.440231 
L 93.9365 -78.785359 
L 93.914788 -79.130486 
L 93.8924 -79.475613 
L 93.867712 -79.82074 
L 93.839225 -80.165868 
L 93.805594 -80.510995 
L 93.765644 -80.856122 
L 93.718394 -81.201249 
L 93.663067 -81.546377 
L 93.599105 -81.891504 
L 93.526179 -82.236631 
L 93.44419 -82.581758 
L 93.353276 -82.926886 
L 93.253809 -83.272013 
L 93.14639 -83.61714 
L 93.031841 -83.962267 
L 92.911193 -84.307394 
L 92.785677 -84.652522 
L 92.656701 -84.997649 
L 92.525838 -85.342776 
L 92.394798 -85.687903 
L 92.265413 -86.033031 
L 92.139608 -86.378158 
L 92.019376 -86.723285 
L 91.906755 -87.068412 
L 91.803803 -87.41354 
L 91.712566 -87.758667 
L 91.635057 -88.103794 
L 91.573231 -88.448921 
L 91.528959 -88.794048 
L 91.504003 -89.139176 
L 91.5 -89.484303 
L 91.518438 -89.82943 
L 91.560639 -90.174557 
L 91.627743 -90.519685 
L 91.720697 -90.864812 
L 91.840242 -91.209939 
L 91.986904 -91.555066 
L 92.160988 -91.900194 
L 92.362581 -92.245321 
L 92.59154 -92.590448 
L 92.847507 -92.935575 
L 93.129903 -93.280702 
L 93.437942 -93.62583 
L 93.770637 -93.970957 
L 94.126813 -94.316084 
L 94.505121 -94.661211 
L 94.90405 -95.006339 
L 95.321951 -95.351466 
L 95.757047 -95.696593 
L 96.207456 -96.04172 
L 96.671215 -96.386848 
L 97.146291 -96.731975 
L 97.630611 -97.077102 
L 98.122077 -97.422229 
L 98.618589 -97.767356 
L 99.118063 -98.112484 
L 99.61845 -98.457611 
L 100.117757 -98.802738 
L 100.614059 -99.147865 
L 101.105515 -99.492993 
L 101.590385 -99.83812 
L 102.067039 -100.183247 
L 102.533966 -100.528374 
L 102.989786 -100.873502 
L 117.210214 -100.873502 
L 117.210214 -100.873502 
L 117.666034 -100.528374 
L 118.132961 -100.183247 
L 118.609615 -99.83812 
L 119.094485 -99.492993 
L 119.585941 -99.147865 
L 120.082243 -98.802738 
L 120.58155 -98.457611 
L 121.081937 -98.112484 
L 121.581411 -97.767356 
L 122.077923 -97.422229 
L 122.569389 -97.077102 
L 123.053709 -96.731975 
L 123.528785 -96.386848 
L 123.992544 -96.04172 
L 124.442953 -95.696593 
L 124.878049 -95.351466 
L 125.29595 -95.006339 
L 125.694879 -94.661211 
L 126.073187 -94.316084 
L 126.429363 -93.970957 
L 126.762058 -93.62583 
L 127.070097 -93.280702 
L 127.352493 -92.935575 
L 127.60846 -92.590448 
L 127.837419 -92.245321 
L 128.039012 -91.900194 
L 128.213096 -91.555066 
L 128.359758 -91.209939 
L 128.479303 -90.864812 
L 128.572257 -90.519685 
L 128.639361 -90.174557 
L 128.681562 -89.82943 
L 128.7 -89.484303 
L 128.695997 -89.139176 
L 128.671041 -88.794048 
L 128.626769 -88.448921 
L 128.564943 -88.103794 
L 128.487434 -87.758667 
L 128.396197 -87.41354 
L 128.293245 -87.068412 
L 128.180624 -86.723285 
L 128.060392 -86.378158 
L 127.934587 -86.033031 
L 127.805202 -85.687903 
L 127.674162 -85.342776 
L 127.543299 -84.997649 
L 127.414323 -84.652522 
L 127.288807 -84.307394 
L 127.168159 -83.962267 
L 127.05361 -83.61714 
L 126.946191 -83.272013 
L 126.846724 -82.926886 
L 126.75581 -82.581758 
L 126.673821 -82.236631 
L 126.600895 -81.891504 
L 126.536933 -81.546377 
L 126.481606 -81.201249 
L 126.434356 -80.856122 
L 126.394406 -80.510995 
L 126.360775 -80.165868 
L 126.332288 -79.82074 
L 126.3076 -79.475613 
L 126.285212 -79.130486 
L 126.2635 -78.785359 
L 126.240732 -78.440231 
L 126.215105 -78.095104 
L 126.184764 -77.749977 
L 126.147839 -77.40485 
L 126.102467 -77.059723 
L 126.046827 -76.714595 
L 125.979163 -76.369468 
L 125.897818 -76.024341 
L 125.801252 -75.679214 
L 125.688071 -75.334086 
L 125.557048 -74.988959 
L 125.40714 -74.643832 
L 125.237503 -74.298705 
L 125.047508 -73.953577 
L 124.836745 -73.60845 
L 124.605034 -73.263323 
L 124.352423 -72.918196 
L 124.079188 -72.573069 
L 123.785829 -72.227941 
L 123.47306 -71.882814 
L 123.1418 -71.537687 
L 122.793155 -71.19256 
L 122.428408 -70.847432 
L 122.048994 -70.502305 
L 121.656484 -70.157178 
L 121.25256 -69.812051 
L 120.838995 -69.466923 
L 120.41763 -69.121796 
L 119.990345 -68.776669 
L 119.559043 -68.431542 
L 119.125624 -68.086415 
L 118.691963 -67.741287 
L 118.259891 -67.39616 
L 117.831174 -67.051033 
L 117.407497 -66.705906 
z
" style="stroke: #000000"/>
    </defs>
    <g clip-path="url(#pa3b7d12f83)">
     <use xlink:href="#mfe104d992a" x="0" y="144" style="fill: #b54062; stroke: #000000"/>
    </g>
   </g>
   <g id="FillBetweenPolyCollection_3">
    <defs>
     <path id="m433972d606" d="M 169.797065 -56.062241 
L 162.002935 -56.062241 
L 161.758053 -56.135128 
L 161.50864 -56.208015 
L 161.2555 -56.280902 
L 160.999465 -56.353789 
L 160.741389 -56.426675 
L 160.482132 -56.499562 
L 160.22255 -56.572449 
L 159.963485 -56.645336 
L 159.705746 -56.718222 
L 159.450105 -56.791109 
L 159.19728 -56.863996 
L 158.947925 -56.936883 
L 158.702621 -57.00977 
L 158.461867 -57.082656 
L 158.22607 -57.155543 
L 157.995542 -57.22843 
L 157.770491 -57.301317 
L 157.551023 -57.374204 
L 157.337135 -57.44709 
L 157.128719 -57.519977 
L 156.925563 -57.592864 
L 156.727353 -57.665751 
L 156.53368 -57.738638 
L 156.344045 -57.811524 
L 156.157869 -57.884411 
L 155.974501 -57.957298 
L 155.793228 -58.030185 
L 155.613286 -58.103072 
L 155.433876 -58.175958 
L 155.25417 -58.248845 
L 155.073331 -58.321732 
L 154.890523 -58.394619 
L 154.704924 -58.467505 
L 154.515743 -58.540392 
L 154.322234 -58.613279 
L 154.123706 -58.686166 
L 153.919541 -58.759053 
L 153.709204 -58.831939 
L 153.492258 -58.904826 
L 153.268375 -58.977713 
L 153.037345 -59.0506 
L 152.799093 -59.123487 
L 152.553681 -59.196373 
L 152.301322 -59.26926 
L 152.042384 -59.342147 
L 151.777396 -59.415034 
L 151.507052 -59.487921 
L 151.232216 -59.560807 
L 150.953916 -59.633694 
L 150.673348 -59.706581 
L 150.391868 -59.779468 
L 150.110989 -59.852355 
L 149.832365 -59.925241 
L 149.557789 -59.998128 
L 149.289172 -60.071015 
L 149.028526 -60.143902 
L 148.777952 -60.216788 
L 148.539611 -60.289675 
L 148.315707 -60.362562 
L 148.108456 -60.435449 
L 147.920067 -60.508336 
L 147.75271 -60.581222 
L 147.608489 -60.654109 
L 147.489415 -60.726996 
L 147.397377 -60.799883 
L 147.334117 -60.87277 
L 147.301201 -60.945656 
L 147.3 -61.018543 
L 147.331663 -61.09143 
L 147.397102 -61.164317 
L 147.496973 -61.237204 
L 147.631666 -61.31009 
L 147.801291 -61.382977 
L 148.005679 -61.455864 
L 148.244376 -61.528751 
L 148.516647 -61.601638 
L 148.821484 -61.674524 
L 149.15761 -61.747411 
L 149.523504 -61.820298 
L 149.917406 -61.893185 
L 150.337347 -61.966071 
L 150.781166 -62.038958 
L 151.246541 -62.111845 
L 151.73101 -62.184732 
L 152.232005 -62.257619 
L 152.746877 -62.330505 
L 153.272931 -62.403392 
L 153.80745 -62.476279 
L 154.347729 -62.549166 
L 154.891099 -62.622053 
L 155.434957 -62.694939 
L 155.976788 -62.767826 
L 156.514189 -62.840713 
L 157.04489 -62.9136 
L 157.566769 -62.986487 
L 158.077869 -63.059373 
L 158.576408 -63.13226 
L 159.06079 -63.205147 
L 159.52961 -63.278034 
L 172.27039 -63.278034 
L 172.27039 -63.278034 
L 172.73921 -63.205147 
L 173.223592 -63.13226 
L 173.722131 -63.059373 
L 174.233231 -62.986487 
L 174.75511 -62.9136 
L 175.285811 -62.840713 
L 175.823212 -62.767826 
L 176.365043 -62.694939 
L 176.908901 -62.622053 
L 177.452271 -62.549166 
L 177.99255 -62.476279 
L 178.527069 -62.403392 
L 179.053123 -62.330505 
L 179.567995 -62.257619 
L 180.06899 -62.184732 
L 180.553459 -62.111845 
L 181.018834 -62.038958 
L 181.462653 -61.966071 
L 181.882594 -61.893185 
L 182.276496 -61.820298 
L 182.64239 -61.747411 
L 182.978516 -61.674524 
L 183.283353 -61.601638 
L 183.555624 -61.528751 
L 183.794321 -61.455864 
L 183.998709 -61.382977 
L 184.168334 -61.31009 
L 184.303027 -61.237204 
L 184.402898 -61.164317 
L 184.468337 -61.09143 
L 184.5 -61.018543 
L 184.498799 -60.945656 
L 184.465883 -60.87277 
L 184.402623 -60.799883 
L 184.310585 -60.726996 
L 184.191511 -60.654109 
L 184.04729 -60.581222 
L 183.879933 -60.508336 
L 183.691544 -60.435449 
L 183.484293 -60.362562 
L 183.260389 -60.289675 
L 183.022048 -60.216788 
L 182.771474 -60.143902 
L 182.510828 -60.071015 
L 182.242211 -59.998128 
L 181.967635 -59.925241 
L 181.689011 -59.852355 
L 181.408132 -59.779468 
L 181.126652 -59.706581 
L 180.846084 -59.633694 
L 180.567784 -59.560807 
L 180.292948 -59.487921 
L 180.022604 -59.415034 
L 179.757616 -59.342147 
L 179.498678 -59.26926 
L 179.246319 -59.196373 
L 179.000907 -59.123487 
L 178.762655 -59.0506 
L 178.531625 -58.977713 
L 178.307742 -58.904826 
L 178.090796 -58.831939 
L 177.880459 -58.759053 
L 177.676294 -58.686166 
L 177.477766 -58.613279 
L 177.284257 -58.540392 
L 177.095076 -58.467505 
L 176.909477 -58.394619 
L 176.726669 -58.321732 
L 176.54583 -58.248845 
L 176.366124 -58.175958 
L 176.186714 -58.103072 
L 176.006772 -58.030185 
L 175.825499 -57.957298 
L 175.642131 -57.884411 
L 175.455955 -57.811524 
L 175.26632 -57.738638 
L 175.072647 -57.665751 
L 174.874437 -57.592864 
L 174.671281 -57.519977 
L 174.462865 -57.44709 
L 174.248977 -57.374204 
L 174.029509 -57.301317 
L 173.804458 -57.22843 
L 173.57393 -57.155543 
L 173.338133 -57.082656 
L 173.097379 -57.00977 
L 172.852075 -56.936883 
L 172.60272 -56.863996 
L 172.349895 -56.791109 
L 172.094254 -56.718222 
L 171.836515 -56.645336 
L 171.57745 -56.572449 
L 171.317868 -56.499562 
L 171.058611 -56.426675 
L 170.800535 -56.353789 
L 170.5445 -56.280902 
L 170.29136 -56.208015 
L 170.041947 -56.135128 
L 169.797065 -56.062241 
z
" style="stroke: #000000"/>
    </defs>
    <g clip-path="url(#pa3b7d12f83)">
     <use xlink:href="#m433972d606" x="0" y="144" style="fill: #bcdbe8; stroke: #000000"/>
    </g>
   </g>
   <g id="FillBetweenPolyCollection_4">
    <defs>
     <path id="me59369cb2d" d="M 205.95882 -21.669371 
L 200.24118 -21.669371 
L 200.089248 -22.045756 
L 199.937882 -22.422141 
L 199.787922 -22.798526 
L 199.640226 -23.17491 
L 199.495662 -23.551295 
L 199.355093 -23.92768 
L 199.219367 -24.304065 
L 199.089304 -24.68045 
L 198.965682 -25.056834 
L 198.849226 -25.433219 
L 198.740593 -25.809604 
L 198.64036 -26.185989 
L 198.54901 -26.562374 
L 198.466922 -26.938758 
L 198.39436 -27.315143 
L 198.33146 -27.691528 
L 198.278225 -28.067913 
L 198.234516 -28.444298 
L 198.200046 -28.820682 
L 198.174376 -29.197067 
L 198.156913 -29.573452 
L 198.146909 -29.949837 
L 198.143462 -30.326222 
L 198.145521 -30.702606 
L 198.151892 -31.078991 
L 198.161242 -31.455376 
L 198.172112 -31.831761 
L 198.182928 -32.208146 
L 198.192012 -32.58453 
L 198.197601 -32.960915 
L 198.197859 -33.3373 
L 198.190899 -33.713685 
L 198.174803 -34.09007 
L 198.147638 -34.466455 
L 198.107485 -34.842839 
L 198.052455 -35.219224 
L 197.980716 -35.595609 
L 197.890519 -35.971994 
L 197.780215 -36.348379 
L 197.648286 -36.724763 
L 197.493363 -37.101148 
L 197.314255 -37.477533 
L 197.109965 -37.853918 
L 196.879715 -38.230303 
L 196.622961 -38.606687 
L 196.339417 -38.983072 
L 196.029066 -39.359457 
L 195.692173 -39.735842 
L 195.329298 -40.112227 
L 194.941302 -40.488611 
L 194.529351 -40.864996 
L 194.09492 -41.241381 
L 193.639785 -41.617766 
L 193.166022 -41.994151 
L 192.675995 -42.370535 
L 192.172338 -42.74692 
L 191.657944 -43.123305 
L 191.135937 -43.49969 
L 190.609648 -43.876075 
L 190.082586 -44.252459 
L 189.558408 -44.628844 
L 189.040876 -45.005229 
L 188.533828 -45.381614 
L 188.041132 -45.757999 
L 187.566643 -46.134383 
L 187.114166 -46.510768 
L 186.687408 -46.887153 
L 186.289937 -47.263538 
L 185.92514 -47.639923 
L 185.59618 -48.016307 
L 185.305963 -48.392692 
L 185.057097 -48.769077 
L 184.851864 -49.145462 
L 184.692189 -49.521847 
L 184.579622 -49.898231 
L 184.515312 -50.274616 
L 184.5 -50.651001 
L 184.534008 -51.027386 
L 184.617236 -51.403771 
L 184.749171 -51.780155 
L 184.928887 -52.15654 
L 185.155067 -52.532925 
L 185.426019 -52.90931 
L 185.739699 -53.285695 
L 186.093742 -53.662079 
L 186.485494 -54.038464 
L 186.912044 -54.414849 
L 187.370266 -54.791234 
L 187.856857 -55.167619 
L 188.368376 -55.544003 
L 188.90129 -55.920388 
L 189.452013 -56.296773 
L 190.016946 -56.673158 
L 190.592515 -57.049543 
L 191.175215 -57.425927 
L 191.761634 -57.802312 
L 192.348496 -58.178697 
L 192.932681 -58.555082 
L 193.511256 -58.931467 
L 212.688744 -58.931467 
L 212.688744 -58.931467 
L 213.267319 -58.555082 
L 213.851504 -58.178697 
L 214.438366 -57.802312 
L 215.024785 -57.425927 
L 215.607485 -57.049543 
L 216.183054 -56.673158 
L 216.747987 -56.296773 
L 217.29871 -55.920388 
L 217.831624 -55.544003 
L 218.343143 -55.167619 
L 218.829734 -54.791234 
L 219.287956 -54.414849 
L 219.714506 -54.038464 
L 220.106258 -53.662079 
L 220.460301 -53.285695 
L 220.773981 -52.90931 
L 221.044933 -52.532925 
L 221.271113 -52.15654 
L 221.450829 -51.780155 
L 221.582764 -51.403771 
L 221.665992 -51.027386 
L 221.7 -50.651001 
L 221.684688 -50.274616 
L 221.620378 -49.898231 
L 221.507811 -49.521847 
L 221.348136 -49.145462 
L 221.142903 -48.769077 
L 220.894037 -48.392692 
L 220.60382 -48.016307 
L 220.27486 -47.639923 
L 219.910063 -47.263538 
L 219.512592 -46.887153 
L 219.085834 -46.510768 
L 218.633357 -46.134383 
L 218.158868 -45.757999 
L 217.666172 -45.381614 
L 217.159124 -45.005229 
L 216.641592 -44.628844 
L 216.117414 -44.252459 
L 215.590352 -43.876075 
L 215.064063 -43.49969 
L 214.542056 -43.123305 
L 214.027662 -42.74692 
L 213.524005 -42.370535 
L 213.033978 -41.994151 
L 212.560215 -41.617766 
L 212.10508 -41.241381 
L 211.670649 -40.864996 
L 211.258698 -40.488611 
L 210.870702 -40.112227 
L 210.507827 -39.735842 
L 210.170934 -39.359457 
L 209.860583 -38.983072 
L 209.577039 -38.606687 
L 209.320285 -38.230303 
L 209.090035 -37.853918 
L 208.885745 -37.477533 
L 208.706637 -37.101148 
L 208.551714 -36.724763 
L 208.419785 -36.348379 
L 208.309481 -35.971994 
L 208.219284 -35.595609 
L 208.147545 -35.219224 
L 208.092515 -34.842839 
L 208.052362 -34.466455 
L 208.025197 -34.09007 
L 208.009101 -33.713685 
L 208.002141 -33.3373 
L 208.002399 -32.960915 
L 208.007988 -32.58453 
L 208.017072 -32.208146 
L 208.027888 -31.831761 
L 208.038758 -31.455376 
L 208.048108 -31.078991 
L 208.054479 -30.702606 
L 208.056538 -30.326222 
L 208.053091 -29.949837 
L 208.043087 -29.573452 
L 208.025624 -29.197067 
L 207.999954 -28.820682 
L 207.965484 -28.444298 
L 207.921775 -28.067913 
L 207.86854 -27.691528 
L 207.80564 -27.315143 
L 207.733078 -26.938758 
L 207.65099 -26.562374 
L 207.55964 -26.185989 
L 207.459407 -25.809604 
L 207.350774 -25.433219 
L 207.234318 -25.056834 
L 207.110696 -24.68045 
L 206.980633 -24.304065 
L 206.844907 -23.92768 
L 206.704338 -23.551295 
L 206.559774 -23.17491 
L 206.412078 -22.798526 
L 206.262118 -22.422141 
L 206.110752 -22.045756 
L 205.95882 -21.669371 
z
" style="stroke: #000000"/>
    </defs>
    <g clip-path="url(#pa3b7d12f83)">
     <use xlink:href="#me59369cb2d" x="0" y="144" style="fill: #b54062; stroke: #000000"/>
    </g>
   </g>
   <g id="FillBetweenPolyCollection_5">
    <defs>
     <path id="med0bff2f4f" d="M 262.875911 -52.003554 
L 254.924089 -52.003554 
L 254.715713 -52.233312 
L 254.506708 -52.463071 
L 254.297924 -52.69283 
L 254.090216 -52.922588 
L 253.884437 -53.152347 
L 253.681423 -53.382106 
L 253.481981 -53.611864 
L 253.286875 -53.841623 
L 253.096812 -54.071381 
L 252.91243 -54.30114 
L 252.734285 -54.530899 
L 252.562836 -54.760657 
L 252.398436 -54.990416 
L 252.241322 -55.220175 
L 252.091605 -55.449933 
L 251.949261 -55.679692 
L 251.814128 -55.90945 
L 251.685899 -56.139209 
L 251.564124 -56.368968 
L 251.448209 -56.598726 
L 251.337417 -56.828485 
L 251.230879 -57.058244 
L 251.127595 -57.288002 
L 251.026448 -57.517761 
L 250.926217 -57.747519 
L 250.825592 -57.977278 
L 250.723187 -58.207037 
L 250.617565 -58.436795 
L 250.507254 -58.666554 
L 250.390769 -58.896313 
L 250.266639 -59.126071 
L 250.133426 -59.35583 
L 249.989752 -59.585588 
L 249.834322 -59.815347 
L 249.665949 -60.045106 
L 249.483577 -60.274864 
L 249.2863 -60.504623 
L 249.073387 -60.734381 
L 248.844301 -60.96414 
L 248.59871 -61.193899 
L 248.336508 -61.423657 
L 248.05782 -61.653416 
L 247.763018 -61.883175 
L 247.452718 -62.112933 
L 247.127788 -62.342692 
L 246.789345 -62.57245 
L 246.438748 -62.802209 
L 246.077593 -63.031968 
L 245.707698 -63.261726 
L 245.33109 -63.491485 
L 244.949986 -63.721244 
L 244.566773 -63.951002 
L 244.183983 -64.180761 
L 243.804268 -64.410519 
L 243.430371 -64.640278 
L 243.065096 -64.870037 
L 242.711282 -65.099795 
L 242.371765 -65.329554 
L 242.049348 -65.559313 
L 241.746776 -65.789071 
L 241.466693 -66.01883 
L 241.211623 -66.248588 
L 240.983936 -66.478347 
L 240.78582 -66.708106 
L 240.619262 -66.937864 
L 240.48602 -67.167623 
L 240.387607 -67.397382 
L 240.325275 -67.62714 
L 240.3 -67.856899 
L 240.312475 -68.086657 
L 240.363103 -68.316416 
L 240.451994 -68.546175 
L 240.578964 -68.775933 
L 240.743546 -69.005692 
L 240.944991 -69.235451 
L 241.182283 -69.465209 
L 241.454149 -69.694968 
L 241.759081 -69.924726 
L 242.095351 -70.154485 
L 242.461031 -70.384244 
L 242.85402 -70.614002 
L 243.272066 -70.843761 
L 243.71279 -71.07352 
L 244.173712 -71.303278 
L 244.65228 -71.533037 
L 245.145892 -71.762795 
L 245.651926 -71.992554 
L 246.16776 -72.222313 
L 246.6908 -72.452071 
L 247.218501 -72.68183 
L 247.748386 -72.911589 
L 248.278071 -73.141347 
L 248.805276 -73.371106 
L 249.327843 -73.600864 
L 249.843752 -73.830623 
L 250.351125 -74.060382 
L 250.848245 -74.29014 
L 251.333551 -74.519899 
L 251.805652 -74.749658 
L 265.994348 -74.749658 
L 265.994348 -74.749658 
L 266.466449 -74.519899 
L 266.951755 -74.29014 
L 267.448875 -74.060382 
L 267.956248 -73.830623 
L 268.472157 -73.600864 
L 268.994724 -73.371106 
L 269.521929 -73.141347 
L 270.051614 -72.911589 
L 270.581499 -72.68183 
L 271.1092 -72.452071 
L 271.63224 -72.222313 
L 272.148074 -71.992554 
L 272.654108 -71.762795 
L 273.14772 -71.533037 
L 273.626288 -71.303278 
L 274.08721 -71.07352 
L 274.527934 -70.843761 
L 274.94598 -70.614002 
L 275.338969 -70.384244 
L 275.704649 -70.154485 
L 276.040919 -69.924726 
L 276.345851 -69.694968 
L 276.617717 -69.465209 
L 276.855009 -69.235451 
L 277.056454 -69.005692 
L 277.221036 -68.775933 
L 277.348006 -68.546175 
L 277.436897 -68.316416 
L 277.487525 -68.086657 
L 277.5 -67.856899 
L 277.474725 -67.62714 
L 277.412393 -67.397382 
L 277.31398 -67.167623 
L 277.180738 -66.937864 
L 277.01418 -66.708106 
L 276.816064 -66.478347 
L 276.588377 -66.248588 
L 276.333307 -66.01883 
L 276.053224 -65.789071 
L 275.750652 -65.559313 
L 275.428235 -65.329554 
L 275.088718 -65.099795 
L 274.734904 -64.870037 
L 274.369629 -64.640278 
L 273.995732 -64.410519 
L 273.616017 -64.180761 
L 273.233227 -63.951002 
L 272.850014 -63.721244 
L 272.46891 -63.491485 
L 272.092302 -63.261726 
L 271.722407 -63.031968 
L 271.361252 -62.802209 
L 271.010655 -62.57245 
L 270.672212 -62.342692 
L 270.347282 -62.112933 
L 270.036982 -61.883175 
L 269.74218 -61.653416 
L 269.463492 -61.423657 
L 269.20129 -61.193899 
L 268.955699 -60.96414 
L 268.726613 -60.734381 
L 268.5137 -60.504623 
L 268.316423 -60.274864 
L 268.134051 -60.045106 
L 267.965678 -59.815347 
L 267.810248 -59.585588 
L 267.666574 -59.35583 
L 267.533361 -59.126071 
L 267.409231 -58.896313 
L 267.292746 -58.666554 
L 267.182435 -58.436795 
L 267.076813 -58.207037 
L 266.974408 -57.977278 
L 266.873783 -57.747519 
L 266.773552 -57.517761 
L 266.672405 -57.288002 
L 266.569121 -57.058244 
L 266.462583 -56.828485 
L 266.351791 -56.598726 
L 266.235876 -56.368968 
L 266.114101 -56.139209 
L 265.985872 -55.90945 
L 265.850739 -55.679692 
L 265.708395 -55.449933 
L 265.558678 -55.220175 
L 265.401564 -54.990416 
L 265.237164 -54.760657 
L 265.065715 -54.530899 
L 264.88757 -54.30114 
L 264.703188 -54.071381 
L 264.513125 -53.841623 
L 264.318019 -53.611864 
L 264.118577 -53.382106 
L 263.915563 -53.152347 
L 263.709784 -52.922588 
L 263.502076 -52.69283 
L 263.293292 -52.463071 
L 263.084287 -52.233312 
L 262.875911 -52.003554 
z
" style="stroke: #000000"/>
    </defs>
    <g clip-path="url(#pa3b7d12f83)">
     <use xlink:href="#med0bff2f4f" x="0" y="144" style="fill: #bcdbe8; stroke: #000000"/>
    </g>
   </g>
   <g id="FillBetweenPolyCollection_6">
    <defs>
     <path id="mac4fd15823" d="M 300.478066 -14.048724 
L 291.721934 -14.048724 
L 291.388036 -14.425042 
L 291.040592 -14.801361 
L 290.68002 -15.177679 
L 290.306802 -15.553997 
L 289.921486 -15.930316 
L 289.524676 -16.306634 
L 289.117038 -16.682952 
L 288.699291 -17.05927 
L 288.272208 -17.435589 
L 287.836619 -17.811907 
L 287.393402 -18.188225 
L 286.943496 -18.564543 
L 286.487891 -18.940862 
L 286.027641 -19.31718 
L 285.56386 -19.693498 
L 285.097732 -20.069817 
L 284.630509 -20.446135 
L 284.163523 -20.822453 
L 283.698185 -21.198771 
L 283.235989 -21.57509 
L 282.778517 -21.951408 
L 282.327438 -22.327726 
L 281.884507 -22.704044 
L 281.451563 -23.080363 
L 281.030523 -23.456681 
L 280.62337 -23.832999 
L 280.232148 -24.209318 
L 279.858941 -24.585636 
L 279.505856 -24.961954 
L 279.175002 -25.338272 
L 278.868468 -25.714591 
L 278.58829 -26.090909 
L 278.33643 -26.467227 
L 278.114737 -26.843545 
L 277.924921 -27.219864 
L 277.768518 -27.596182 
L 277.646861 -27.9725 
L 277.561047 -28.348818 
L 277.511911 -28.725137 
L 277.5 -29.101455 
L 277.525554 -29.477773 
L 277.588485 -29.854092 
L 277.688373 -30.23041 
L 277.824451 -30.606728 
L 277.995612 -30.983046 
L 278.200415 -31.359365 
L 278.437096 -31.735683 
L 278.703586 -32.112001 
L 278.997541 -32.488319 
L 279.316371 -32.864638 
L 279.657275 -33.240956 
L 280.017285 -33.617274 
L 280.393304 -33.993593 
L 280.782163 -34.369911 
L 281.18066 -34.746229 
L 281.585614 -35.122547 
L 281.993916 -35.498866 
L 282.40257 -35.875184 
L 282.808743 -36.251502 
L 283.209805 -36.62782 
L 283.603364 -37.004139 
L 283.9873 -37.380457 
L 284.359788 -37.756775 
L 284.719319 -38.133094 
L 285.064713 -38.509412 
L 285.395124 -38.88573 
L 285.710038 -39.262048 
L 286.009266 -39.638367 
L 286.292931 -40.014685 
L 286.561446 -40.391003 
L 286.815491 -40.767321 
L 287.05598 -41.14364 
L 287.284029 -41.519958 
L 287.500922 -41.896276 
L 287.708067 -42.272595 
L 287.906963 -42.648913 
L 288.099154 -43.025231 
L 288.286197 -43.401549 
L 288.469619 -43.777868 
L 288.650888 -44.154186 
L 288.831377 -44.530504 
L 289.012341 -44.906822 
L 289.194888 -45.283141 
L 289.379967 -45.659459 
L 289.56835 -46.035777 
L 289.760622 -46.412096 
L 289.95718 -46.788414 
L 290.15823 -47.164732 
L 290.363794 -47.54105 
L 290.573719 -47.917369 
L 290.787684 -48.293687 
L 291.005222 -48.670005 
L 291.225734 -49.046323 
L 291.448509 -49.422642 
L 291.672746 -49.79896 
L 291.897572 -50.175278 
L 292.12207 -50.551597 
L 292.345294 -50.927915 
L 292.566295 -51.304233 
L 299.633705 -51.304233 
L 299.633705 -51.304233 
L 299.854706 -50.927915 
L 300.07793 -50.551597 
L 300.302428 -50.175278 
L 300.527254 -49.79896 
L 300.751491 -49.422642 
L 300.974266 -49.046323 
L 301.194778 -48.670005 
L 301.412316 -48.293687 
L 301.626281 -47.917369 
L 301.836206 -47.54105 
L 302.04177 -47.164732 
L 302.24282 -46.788414 
L 302.439378 -46.412096 
L 302.63165 -46.035777 
L 302.820033 -45.659459 
L 303.005112 -45.283141 
L 303.187659 -44.906822 
L 303.368623 -44.530504 
L 303.549112 -44.154186 
L 303.730381 -43.777868 
L 303.913803 -43.401549 
L 304.100846 -43.025231 
L 304.293037 -42.648913 
L 304.491933 -42.272595 
L 304.699078 -41.896276 
L 304.915971 -41.519958 
L 305.14402 -41.14364 
L 305.384509 -40.767321 
L 305.638554 -40.391003 
L 305.907069 -40.014685 
L 306.190734 -39.638367 
L 306.489962 -39.262048 
L 306.804876 -38.88573 
L 307.135287 -38.509412 
L 307.480681 -38.133094 
L 307.840212 -37.756775 
L 308.2127 -37.380457 
L 308.596636 -37.004139 
L 308.990195 -36.62782 
L 309.391257 -36.251502 
L 309.79743 -35.875184 
L 310.206084 -35.498866 
L 310.614386 -35.122547 
L 311.01934 -34.746229 
L 311.417837 -34.369911 
L 311.806696 -33.993593 
L 312.182715 -33.617274 
L 312.542725 -33.240956 
L 312.883629 -32.864638 
L 313.202459 -32.488319 
L 313.496414 -32.112001 
L 313.762904 -31.735683 
L 313.999585 -31.359365 
L 314.204388 -30.983046 
L 314.375549 -30.606728 
L 314.511627 -30.23041 
L 314.611515 -29.854092 
L 314.674446 -29.477773 
L 314.7 -29.101455 
L 314.688089 -28.725137 
L 314.638953 -28.348818 
L 314.553139 -27.9725 
L 314.431482 -27.596182 
L 314.275079 -27.219864 
L 314.085263 -26.843545 
L 313.86357 -26.467227 
L 313.61171 -26.090909 
L 313.331532 -25.714591 
L 313.024998 -25.338272 
L 312.694144 -24.961954 
L 312.341059 -24.585636 
L 311.967852 -24.209318 
L 311.57663 -23.832999 
L 311.169477 -23.456681 
L 310.748437 -23.080363 
L 310.315493 -22.704044 
L 309.872562 -22.327726 
L 309.421483 -21.951408 
L 308.964011 -21.57509 
L 308.501815 -21.198771 
L 308.036477 -20.822453 
L 307.569491 -20.446135 
L 307.102268 -20.069817 
L 306.63614 -19.693498 
L 306.172359 -19.31718 
L 305.712109 -18.940862 
L 305.256504 -18.564543 
L 304.806598 -18.188225 
L 304.363381 -17.811907 
L 303.927792 -17.435589 
L 303.500709 -17.05927 
L 303.082962 -16.682952 
L 302.675324 -16.306634 
L 302.278514 -15.930316 
L 301.893198 -15.553997 
L 301.51998 -15.177679 
L 301.159408 -14.801361 
L 300.811964 -14.425042 
L 300.478066 -14.048724 
z
" style="stroke: #000000"/>
    </defs>
    <g clip-path="url(#pa3b7d12f83)">
     <use xlink:href="#mac4fd15823" x="0" y="144" style="fill: #b54062; stroke: #000000"/>
    </g>
   </g>
   <g id="patch_3">
    <path d="M 91.5 128.16 
L 91.5 128.16 
L 91.5 128.16 
L 91.5 128.16 
z
" clip-path="url(#pa3b7d12f83)" style="fill: #bcdbe8; stroke: #000000; stroke-linejoin: miter"/>
   </g>
   <g id="patch_4">
    <path d="M 91.5 128.16 
L 91.5 128.16 
L 91.5 128.16 
L 91.5 128.16 
z
" clip-path="url(#pa3b7d12f83)" style="fill: #b54062; stroke: #000000; stroke-linejoin: miter"/>
   </g>
   <g id="patch_5">
    <path d="M 45 128.16 
L 45 17.28 
" style="fill: none; stroke: #ffffff; stroke-width: 1.25; stroke-linejoin: miter; stroke-linecap: square"/>
   </g>
   <g id="patch_6">
    <path d="M 324 128.16 
L 324 17.28 
" style="fill: none; stroke: #ffffff; stroke-width: 1.25; stroke-linejoin: miter; stroke-linecap: square"/>
   </g>
   <g id="patch_7">
    <path d="M 45 128.16 
L 324 128.16 
" style="fill: none; stroke: #ffffff; stroke-width: 1.25; stroke-linejoin: miter; stroke-linecap: square"/>
   </g>
   <g id="patch_8">
    <path d="M 45 17.28 
L 324 17.28 
" style="fill: none; stroke: #ffffff; stroke-width: 1.25; stroke-linejoin: miter; stroke-linecap: square"/>
   </g>
   <g id="PathCollection_1">
    <defs>
     <path id="C0_0_f13e27f283" d="M 0 2.5 
C 0.663008 2.5 1.29895 2.236584 1.767767 1.767767 
C 2.236584 1.29895 2.5 0.663008 2.5 -0 
C 2.5 -0.663008 2.236584 -1.29895 1.767767 -1.767767 
C 1.29895 -2.236584 0.663008 -2.5 0 -2.5 
C -0.663008 -2.5 -1.29895 -2.236584 -1.767767 -1.767767 
C -2.236584 -1.29895 -2.5 -0.663008 -2.5 0 
C -2.5 0.663008 -2.236584 1.29895 -1.767767 1.767767 
C -1.29895 2.236584 -0.663008 2.5 0 2.5 
z
"/>
    </defs>
    <g clip-path="url(#pa3b7d12f83)">
     <use xlink:href="#C0_0_f13e27f283" x="72.9" y="71.096117" style="fill: #ffffff; stroke: #000000; stroke-width: 0.75"/>
    </g>
    <g clip-path="url(#pa3b7d12f83)">
     <use xlink:href="#C0_0_f13e27f283" x="71.415685" y="65.024993" style="fill: #ffffff; stroke: #000000; stroke-width: 0.75"/>
    </g>
    <g clip-path="url(#pa3b7d12f83)">
     <use xlink:href="#C0_0_f13e27f283" x="66.966942" y="70.031223" style="fill: #ffffff; stroke: #000000; stroke-width: 0.75"/>
    </g>
    <g clip-path="url(#pa3b7d12f83)">
     <use xlink:href="#C0_0_f13e27f283" x="72.9" y="77.082417" style="fill: #ffffff; stroke: #000000; stroke-width: 0.75"/>
    </g>
    <g clip-path="url(#pa3b7d12f83)">
     <use xlink:href="#C0_0_f13e27f283" x="77.099262" y="66.964758" style="fill: #ffffff; stroke: #000000; stroke-width: 0.75"/>
    </g>
   </g>
   <g id="PathCollection_2">
    <defs>
     <path id="C1_0_c3bbe47591" d="M 0 2.5 
C 0.663008 2.5 1.29895 2.236584 1.767767 1.767767 
C 2.236584 1.29895 2.5 0.663008 2.5 -0 
C 2.5 -0.663008 2.236584 -1.29895 1.767767 -1.767767 
C 1.29895 -2.236584 0.663008 -2.5 0 -2.5 
C -0.663008 -2.5 -1.29895 -2.236584 -1.767767 -1.767767 
C -2.236584 -1.29895 -2.5 -0.663008 -2.5 0 
C -2.5 0.663008 -2.236584 1.29895 -1.767767 1.767767 
C -1.29895 2.236584 -0.663008 2.5 0 2.5 
z
"/>
    </defs>
    <g clip-path="url(#pa3b7d12f83)">
     <use xlink:href="#C1_0_c3bbe47591" x="108.054478" y="52.662044" style="fill: #ffffff; stroke: #000000; stroke-width: 0.75"/>
    </g>
    <g clip-path="url(#pa3b7d12f83)">
     <use xlink:href="#C1_0_c3bbe47591" x="113.355642" y="49.910164" style="fill: #ffffff; stroke: #000000; stroke-width: 0.75"/>
    </g>
    <g clip-path="url(#pa3b7d12f83)">
     <use xlink:href="#C1_0_c3bbe47591" x="110.1" y="58.071974" style="fill: #ffffff; stroke: #000000; stroke-width: 0.75"/>
    </g>
    <g clip-path="url(#pa3b7d12f83)">
     <use xlink:href="#C1_0_c3bbe47591" x="110.1" y="70.510429" style="fill: #ffffff; stroke: #000000; stroke-width: 0.75"/>
    </g>
    <g clip-path="url(#pa3b7d12f83)">
     <use xlink:href="#C1_0_c3bbe47591" x="104.281309" y="68.976462" style="fill: #ffffff; stroke: #000000; stroke-width: 0.75"/>
    </g>
   </g>
   <g id="PathCollection_3">
    <defs>
     <path id="C2_0_2a8e2b2207" d="M 0 2.5 
C 0.663008 2.5 1.29895 2.236584 1.767767 1.767767 
C 2.236584 1.29895 2.5 0.663008 2.5 -0 
C 2.5 -0.663008 2.236584 -1.29895 1.767767 -1.767767 
C 1.29895 -2.236584 0.663008 -2.5 0 -2.5 
C -0.663008 -2.5 -1.29895 -2.236584 -1.767767 -1.767767 
C -2.236584 -1.29895 -2.5 -0.663008 -2.5 0 
C -2.5 0.663008 -2.236584 1.29895 -1.767767 1.767767 
C -1.29895 2.236584 -0.663008 2.5 0 2.5 
z
"/>
    </defs>
    <g clip-path="url(#pa3b7d12f83)">
     <use xlink:href="#C2_0_2a8e2b2207" x="176.739621" y="82.814766" style="fill: #ffffff; stroke: #000000; stroke-width: 0.75"/>
    </g>
    <g clip-path="url(#pa3b7d12f83)">
     <use xlink:href="#C2_0_2a8e2b2207" x="165.9" y="86.614317" style="fill: #ffffff; stroke: #000000; stroke-width: 0.75"/>
    </g>
    <g clip-path="url(#pa3b7d12f83)">
     <use xlink:href="#C2_0_2a8e2b2207" x="160.177066" y="84.782516" style="fill: #ffffff; stroke: #000000; stroke-width: 0.75"/>
    </g>
    <g clip-path="url(#pa3b7d12f83)">
     <use xlink:href="#C2_0_2a8e2b2207" x="154.867477" y="82.045408" style="fill: #ffffff; stroke: #000000; stroke-width: 0.75"/>
    </g>
    <g clip-path="url(#pa3b7d12f83)">
     <use xlink:href="#C2_0_2a8e2b2207" x="170.711871" y="83.141415" style="fill: #ffffff; stroke: #000000; stroke-width: 0.75"/>
    </g>
   </g>
   <g id="PathCollection_4">
    <defs>
     <path id="C3_0_210bfb0430" d="M 0 2.5 
C 0.663008 2.5 1.29895 2.236584 1.767767 1.767767 
C 2.236584 1.29895 2.5 0.663008 2.5 -0 
C 2.5 -0.663008 2.236584 -1.29895 1.767767 -1.767767 
C 1.29895 -2.236584 0.663008 -2.5 0 -2.5 
C -0.663008 -2.5 -1.29895 -2.236584 -1.767767 -1.767767 
C -2.236584 -1.29895 -2.5 -0.663008 -2.5 0 
C -2.5 0.663008 -2.236584 1.29895 -1.767767 1.767767 
C -1.29895 2.236584 -0.663008 2.5 0 2.5 
z
"/>
    </defs>
    <g clip-path="url(#pa3b7d12f83)">
     <use xlink:href="#C3_0_210bfb0430" x="214.454426" y="92.195015" style="fill: #ffffff; stroke: #000000; stroke-width: 0.75"/>
    </g>
    <g clip-path="url(#pa3b7d12f83)">
     <use xlink:href="#C3_0_210bfb0430" x="197.323128" y="93.559511" style="fill: #ffffff; stroke: #000000; stroke-width: 0.75"/>
    </g>
    <g clip-path="url(#pa3b7d12f83)">
     <use xlink:href="#C3_0_210bfb0430" x="203.1" y="95.230705" style="fill: #ffffff; stroke: #000000; stroke-width: 0.75"/>
    </g>
    <g clip-path="url(#pa3b7d12f83)">
     <use xlink:href="#C3_0_210bfb0430" x="208.426825" y="92.524143" style="fill: #ffffff; stroke: #000000; stroke-width: 0.75"/>
    </g>
    <g clip-path="url(#pa3b7d12f83)">
     <use xlink:href="#C3_0_210bfb0430" x="203.1" y="115.204147" style="fill: #ffffff; stroke: #000000; stroke-width: 0.75"/>
    </g>
   </g>
   <g id="PathCollection_5">
    <defs>
     <path id="C4_0_47492caed2" d="M 0 2.5 
C 0.663008 2.5 1.29895 2.236584 1.767767 1.767767 
C 2.236584 1.29895 2.5 0.663008 2.5 -0 
C 2.5 -0.663008 2.236584 -1.29895 1.767767 -1.767767 
C 1.29895 -2.236584 0.663008 -2.5 0 -2.5 
C -0.663008 -2.5 -1.29895 -2.236584 -1.767767 -1.767767 
C -2.236584 -1.29895 -2.5 -0.663008 -2.5 0 
C -2.5 0.663008 -2.236584 1.29895 -1.767767 1.767767 
C -1.29895 2.236584 -0.663008 2.5 0 2.5 
z
"/>
    </defs>
    <g clip-path="url(#pa3b7d12f83)">
     <use xlink:href="#C4_0_47492caed2" x="258.9" y="87.453918" style="fill: #ffffff; stroke: #000000; stroke-width: 0.75"/>
    </g>
    <g clip-path="url(#pa3b7d12f83)">
     <use xlink:href="#C4_0_47492caed2" x="258.9" y="77.436317" style="fill: #ffffff; stroke: #000000; stroke-width: 0.75"/>
    </g>
    <g clip-path="url(#pa3b7d12f83)">
     <use xlink:href="#C4_0_47492caed2" x="252.969711" y="76.357524" style="fill: #ffffff; stroke: #000000; stroke-width: 0.75"/>
    </g>
    <g clip-path="url(#pa3b7d12f83)">
     <use xlink:href="#C4_0_47492caed2" x="263.570766" y="73.792871" style="fill: #ffffff; stroke: #000000; stroke-width: 0.75"/>
    </g>
   </g>
   <g id="PathCollection_6">
    <defs>
     <path id="C5_0_bd0dd79adf" d="M 0 2.5 
C 0.663008 2.5 1.29895 2.236584 1.767767 1.767767 
C 2.236584 1.29895 2.5 0.663008 2.5 -0 
C 2.5 -0.663008 2.236584 -1.29895 1.767767 -1.767767 
C 1.29895 -2.236584 0.663008 -2.5 0 -2.5 
C -0.663008 -2.5 -1.29895 -2.236584 -1.767767 -1.767767 
C -2.236584 -1.29895 -2.5 -0.663008 -2.5 0 
C -2.5 0.663008 -2.236584 1.29895 -1.767767 1.767767 
C -1.29895 2.236584 -0.663008 2.5 0 2.5 
z
"/>
    </defs>
    <g clip-path="url(#pa3b7d12f83)">
     <use xlink:href="#C5_0_bd0dd79adf" x="290.803377" y="113.658971" style="fill: #ffffff; stroke: #000000; stroke-width: 0.75"/>
    </g>
    <g clip-path="url(#pa3b7d12f83)">
     <use xlink:href="#C5_0_bd0dd79adf" x="299.467389" y="111.646203" style="fill: #ffffff; stroke: #000000; stroke-width: 0.75"/>
    </g>
    <g clip-path="url(#pa3b7d12f83)">
     <use xlink:href="#C5_0_bd0dd79adf" x="296.1" y="123.506004" style="fill: #ffffff; stroke: #000000; stroke-width: 0.75"/>
    </g>
    <g clip-path="url(#pa3b7d12f83)">
     <use xlink:href="#C5_0_bd0dd79adf" x="296.1" y="99.141039" style="fill: #ffffff; stroke: #000000; stroke-width: 0.75"/>
    </g>
    <g clip-path="url(#pa3b7d12f83)">
     <use xlink:href="#C5_0_bd0dd79adf" x="296.1" y="116.418771" style="fill: #ffffff; stroke: #000000; stroke-width: 0.75"/>
    </g>
   </g>
   <g id="line2d_5"/>
   <g id="line2d_6"/>
  </g>
 </g>
 <defs>
  <clipPath id="pa3b7d12f83">
   <rect x="45" y="17.28" width="279" height="110.88"/>
  </clipPath>
 </defs>
</svg>
