<?xml version="1.0" encoding="utf-8" standalone="no"?>
<!DOCTYPE svg PUBLIC "-//W3C//DTD SVG 1.1//EN"
  "http://www.w3.org/Graphics/SVG/1.1/DTD/svg11.dtd">
<svg xmlns:xlink="http://www.w3.org/1999/xlink" width="518.4pt" height="432pt" viewBox="0 0 518.4 432" xmlns="http://www.w3.org/2000/svg" version="1.1">
 <metadata>
  <rdf:RDF xmlns:dc="http://purl.org/dc/elements/1.1/" xmlns:cc="http://creativecommons.org/ns#" xmlns:rdf="http://www.w3.org/1999/02/22-rdf-syntax-ns#">
   <cc:Work>
    <dc:type rdf:resource="http://purl.org/dc/dcmitype/StillImage"/>
    <dc:date>2025-09-02T10:54:56.151423</dc:date>
    <dc:format>image/svg+xml</dc:format>
    <dc:creator>
     <cc:Agent>
      <dc:title>Matplotlib v3.10.3, https://matplotlib.org/</dc:title>
     </cc:Agent>
    </dc:creator>
   </cc:Work>
  </rdf:RDF>
 </metadata>
 <defs>
  <style type="text/css">*{stroke-linejoin: round; stroke-linecap: butt}</style>
 </defs>
 <g id="figure_1">
  <g id="patch_1">
   <path d="M 0 432 
L 518.4 432 
L 518.4 0 
L 0 0 
z
" style="fill: #ffffff"/>
  </g>
  <g id="axes_1">
   <g id="patch_2">
    <path d="M 47.82125 390.04 
L 507.6 390.04 
L 507.6 10.8 
L 47.82125 10.8 
z
" style="fill: #ffffff"/>
   </g>
   <g id="patch_3">
    <path d="M 59.315719 390.04 
L 151.271469 390.04 
L 151.271469 154.312686 
L 59.315719 154.312686 
z
" clip-path="url(#p847fbfe402)" style="fill: #a66e4a; stroke: #000000; stroke-linejoin: miter"/>
   </g>
   <g id="patch_4">
    <path d="M 174.260406 390.04 
L 266.216156 390.04 
L 266.216156 161.368849 
L 174.260406 161.368849 
z
" clip-path="url(#p847fbfe402)" style="fill: #93b7d5; stroke: #000000; stroke-linejoin: miter"/>
   </g>
   <g id="patch_5">
    <path d="M 289.205094 390.04 
L 381.160844 390.04 
L 381.160844 220.271434 
L 289.205094 220.271434 
z
" clip-path="url(#p847fbfe402)" style="fill: #c67fae; stroke: #000000; stroke-linejoin: miter"/>
   </g>
   <g id="patch_6">
    <path d="M 404.149781 390.04 
L 496.105531 390.04 
L 496.105531 176.87749 
L 404.149781 176.87749 
z
" clip-path="url(#p847fbfe402)" style="fill: #a6be47; stroke: #000000; stroke-linejoin: miter"/>
   </g>
   <g id="matplotlib.axis_1">
    <g id="xtick_1">
     <g id="line2d_1">
      <defs>
       <path id="mb320e95aeb" d="M 0 0 
L 0 3.5 
" style="stroke: #000000; stroke-width: 0.8"/>
      </defs>
      <g>
       <use xlink:href="#mb320e95aeb" x="105.293594" y="390.04" style="stroke: #000000; stroke-width: 0.8"/>
      </g>
     </g>
     <g id="text_1">
      <!-- mLN -->
      <g transform="translate(93.896719 404.638438) scale(0.1 -0.1)">
       <defs>
        <path id="DejaVuSans-6d" d="M 3328 2828 
Q 3544 3216 3844 3400 
Q 4144 3584 4550 3584 
Q 5097 3584 5394 3201 
Q 5691 2819 5691 2113 
L 5691 0 
L 5113 0 
L 5113 2094 
Q 5113 2597 4934 2840 
Q 4756 3084 4391 3084 
Q 3944 3084 3684 2787 
Q 3425 2491 3425 1978 
L 3425 0 
L 2847 0 
L 2847 2094 
Q 2847 2600 2669 2842 
Q 2491 3084 2119 3084 
Q 1678 3084 1418 2786 
Q 1159 2488 1159 1978 
L 1159 0 
L 581 0 
L 581 3500 
L 1159 3500 
L 1159 2956 
Q 1356 3278 1631 3431 
Q 1906 3584 2284 3584 
Q 2666 3584 2933 3390 
Q 3200 3197 3328 2828 
z
" transform="scale(0.015625)"/>
        <path id="DejaVuSans-4c" d="M 628 4666 
L 1259 4666 
L 1259 531 
L 3531 531 
L 3531 0 
L 628 0 
L 628 4666 
z
" transform="scale(0.015625)"/>
        <path id="DejaVuSans-4e" d="M 628 4666 
L 1478 4666 
L 3547 763 
L 3547 4666 
L 4159 4666 
L 4159 0 
L 3309 0 
L 1241 3903 
L 1241 0 
L 628 0 
L 628 4666 
z
" transform="scale(0.015625)"/>
       </defs>
       <use xlink:href="#DejaVuSans-6d"/>
       <use xlink:href="#DejaVuSans-4c" transform="translate(97.412109 0)"/>
       <use xlink:href="#DejaVuSans-4e" transform="translate(153.125 0)"/>
      </g>
     </g>
    </g>
    <g id="xtick_2">
     <g id="line2d_2">
      <g>
       <use xlink:href="#mb320e95aeb" x="220.238281" y="390.04" style="stroke: #000000; stroke-width: 0.8"/>
      </g>
     </g>
     <g id="text_2">
      <!-- PeyersPatch -->
      <g transform="translate(189.9 404.638438) scale(0.1 -0.1)">
       <defs>
        <path id="DejaVuSans-50" d="M 1259 4147 
L 1259 2394 
L 2053 2394 
Q 2494 2394 2734 2622 
Q 2975 2850 2975 3272 
Q 2975 3691 2734 3919 
Q 2494 4147 2053 4147 
L 1259 4147 
z
M 628 4666 
L 2053 4666 
Q 2838 4666 3239 4311 
Q 3641 3956 3641 3272 
Q 3641 2581 3239 2228 
Q 2838 1875 2053 1875 
L 1259 1875 
L 1259 0 
L 628 0 
L 628 4666 
z
" transform="scale(0.015625)"/>
        <path id="DejaVuSans-65" d="M 3597 1894 
L 3597 1613 
L 953 1613 
Q 991 1019 1311 708 
Q 1631 397 2203 397 
Q 2534 397 2845 478 
Q 3156 559 3463 722 
L 3463 178 
Q 3153 47 2828 -22 
Q 2503 -91 2169 -91 
Q 1331 -91 842 396 
Q 353 884 353 1716 
Q 353 2575 817 3079 
Q 1281 3584 2069 3584 
Q 2775 3584 3186 3129 
Q 3597 2675 3597 1894 
z
M 3022 2063 
Q 3016 2534 2758 2815 
Q 2500 3097 2075 3097 
Q 1594 3097 1305 2825 
Q 1016 2553 972 2059 
L 3022 2063 
z
" transform="scale(0.015625)"/>
        <path id="DejaVuSans-79" d="M 2059 -325 
Q 1816 -950 1584 -1140 
Q 1353 -1331 966 -1331 
L 506 -1331 
L 506 -850 
L 844 -850 
Q 1081 -850 1212 -737 
Q 1344 -625 1503 -206 
L 1606 56 
L 191 3500 
L 800 3500 
L 1894 763 
L 2988 3500 
L 3597 3500 
L 2059 -325 
z
" transform="scale(0.015625)"/>
        <path id="DejaVuSans-72" d="M 2631 2963 
Q 2534 3019 2420 3045 
Q 2306 3072 2169 3072 
Q 1681 3072 1420 2755 
Q 1159 2438 1159 1844 
L 1159 0 
L 581 0 
L 581 3500 
L 1159 3500 
L 1159 2956 
Q 1341 3275 1631 3429 
Q 1922 3584 2338 3584 
Q 2397 3584 2469 3576 
Q 2541 3569 2628 3553 
L 2631 2963 
z
" transform="scale(0.015625)"/>
        <path id="DejaVuSans-73" d="M 2834 3397 
L 2834 2853 
Q 2591 2978 2328 3040 
Q 2066 3103 1784 3103 
Q 1356 3103 1142 2972 
Q 928 2841 928 2578 
Q 928 2378 1081 2264 
Q 1234 2150 1697 2047 
L 1894 2003 
Q 2506 1872 2764 1633 
Q 3022 1394 3022 966 
Q 3022 478 2636 193 
Q 2250 -91 1575 -91 
Q 1294 -91 989 -36 
Q 684 19 347 128 
L 347 722 
Q 666 556 975 473 
Q 1284 391 1588 391 
Q 1994 391 2212 530 
Q 2431 669 2431 922 
Q 2431 1156 2273 1281 
Q 2116 1406 1581 1522 
L 1381 1569 
Q 847 1681 609 1914 
Q 372 2147 372 2553 
Q 372 3047 722 3315 
Q 1072 3584 1716 3584 
Q 2034 3584 2315 3537 
Q 2597 3491 2834 3397 
z
" transform="scale(0.015625)"/>
        <path id="DejaVuSans-61" d="M 2194 1759 
Q 1497 1759 1228 1600 
Q 959 1441 959 1056 
Q 959 750 1161 570 
Q 1363 391 1709 391 
Q 2188 391 2477 730 
Q 2766 1069 2766 1631 
L 2766 1759 
L 2194 1759 
z
M 3341 1997 
L 3341 0 
L 2766 0 
L 2766 531 
Q 2569 213 2275 61 
Q 1981 -91 1556 -91 
Q 1019 -91 701 211 
Q 384 513 384 1019 
Q 384 1609 779 1909 
Q 1175 2209 1959 2209 
L 2766 2209 
L 2766 2266 
Q 2766 2663 2505 2880 
Q 2244 3097 1772 3097 
Q 1472 3097 1187 3025 
Q 903 2953 641 2809 
L 641 3341 
Q 956 3463 1253 3523 
Q 1550 3584 1831 3584 
Q 2591 3584 2966 3190 
Q 3341 2797 3341 1997 
z
" transform="scale(0.015625)"/>
        <path id="DejaVuSans-74" d="M 1172 4494 
L 1172 3500 
L 2356 3500 
L 2356 3053 
L 1172 3053 
L 1172 1153 
Q 1172 725 1289 603 
Q 1406 481 1766 481 
L 2356 481 
L 2356 0 
L 1766 0 
Q 1100 0 847 248 
Q 594 497 594 1153 
L 594 3053 
L 172 3053 
L 172 3500 
L 594 3500 
L 594 4494 
L 1172 4494 
z
" transform="scale(0.015625)"/>
        <path id="DejaVuSans-63" d="M 3122 3366 
L 3122 2828 
Q 2878 2963 2633 3030 
Q 2388 3097 2138 3097 
Q 1578 3097 1268 2742 
Q 959 2388 959 1747 
Q 959 1106 1268 751 
Q 1578 397 2138 397 
Q 2388 397 2633 464 
Q 2878 531 3122 666 
L 3122 134 
Q 2881 22 2623 -34 
Q 2366 -91 2075 -91 
Q 1284 -91 818 406 
Q 353 903 353 1747 
Q 353 2603 823 3093 
Q 1294 3584 2113 3584 
Q 2378 3584 2631 3529 
Q 2884 3475 3122 3366 
z
" transform="scale(0.015625)"/>
        <path id="DejaVuSans-68" d="M 3513 2113 
L 3513 0 
L 2938 0 
L 2938 2094 
Q 2938 2591 2744 2837 
Q 2550 3084 2163 3084 
Q 1697 3084 1428 2787 
Q 1159 2491 1159 1978 
L 1159 0 
L 581 0 
L 581 4863 
L 1159 4863 
L 1159 2956 
Q 1366 3272 1645 3428 
Q 1925 3584 2291 3584 
Q 2894 3584 3203 3211 
Q 3513 2838 3513 2113 
z
" transform="scale(0.015625)"/>
       </defs>
       <use xlink:href="#DejaVuSans-50"/>
       <use xlink:href="#DejaVuSans-65" transform="translate(56.677734 0)"/>
       <use xlink:href="#DejaVuSans-79" transform="translate(118.201172 0)"/>
       <use xlink:href="#DejaVuSans-65" transform="translate(177.380859 0)"/>
       <use xlink:href="#DejaVuSans-72" transform="translate(238.904297 0)"/>
       <use xlink:href="#DejaVuSans-73" transform="translate(280.017578 0)"/>
       <use xlink:href="#DejaVuSans-50" transform="translate(332.117188 0)"/>
       <use xlink:href="#DejaVuSans-61" transform="translate(387.919922 0)"/>
       <use xlink:href="#DejaVuSans-74" transform="translate(449.199219 0)"/>
       <use xlink:href="#DejaVuSans-63" transform="translate(488.408203 0)"/>
       <use xlink:href="#DejaVuSans-68" transform="translate(543.388672 0)"/>
      </g>
     </g>
    </g>
    <g id="xtick_3">
     <g id="line2d_3">
      <g>
       <use xlink:href="#mb320e95aeb" x="335.182969" y="390.04" style="stroke: #000000; stroke-width: 0.8"/>
      </g>
     </g>
     <g id="text_3">
      <!-- Proximal Colon -->
      <g transform="translate(297.980625 404.638438) scale(0.1 -0.1)">
       <defs>
        <path id="DejaVuSans-6f" d="M 1959 3097 
Q 1497 3097 1228 2736 
Q 959 2375 959 1747 
Q 959 1119 1226 758 
Q 1494 397 1959 397 
Q 2419 397 2687 759 
Q 2956 1122 2956 1747 
Q 2956 2369 2687 2733 
Q 2419 3097 1959 3097 
z
M 1959 3584 
Q 2709 3584 3137 3096 
Q 3566 2609 3566 1747 
Q 3566 888 3137 398 
Q 2709 -91 1959 -91 
Q 1206 -91 779 398 
Q 353 888 353 1747 
Q 353 2609 779 3096 
Q 1206 3584 1959 3584 
z
" transform="scale(0.015625)"/>
        <path id="DejaVuSans-78" d="M 3513 3500 
L 2247 1797 
L 3578 0 
L 2900 0 
L 1881 1375 
L 863 0 
L 184 0 
L 1544 1831 
L 300 3500 
L 978 3500 
L 1906 2253 
L 2834 3500 
L 3513 3500 
z
" transform="scale(0.015625)"/>
        <path id="DejaVuSans-69" d="M 603 3500 
L 1178 3500 
L 1178 0 
L 603 0 
L 603 3500 
z
M 603 4863 
L 1178 4863 
L 1178 4134 
L 603 4134 
L 603 4863 
z
" transform="scale(0.015625)"/>
        <path id="DejaVuSans-6c" d="M 603 4863 
L 1178 4863 
L 1178 0 
L 603 0 
L 603 4863 
z
" transform="scale(0.015625)"/>
        <path id="DejaVuSans-20" transform="scale(0.015625)"/>
        <path id="DejaVuSans-43" d="M 4122 4306 
L 4122 3641 
Q 3803 3938 3442 4084 
Q 3081 4231 2675 4231 
Q 1875 4231 1450 3742 
Q 1025 3253 1025 2328 
Q 1025 1406 1450 917 
Q 1875 428 2675 428 
Q 3081 428 3442 575 
Q 3803 722 4122 1019 
L 4122 359 
Q 3791 134 3420 21 
Q 3050 -91 2638 -91 
Q 1578 -91 968 557 
Q 359 1206 359 2328 
Q 359 3453 968 4101 
Q 1578 4750 2638 4750 
Q 3056 4750 3426 4639 
Q 3797 4528 4122 4306 
z
" transform="scale(0.015625)"/>
        <path id="DejaVuSans-6e" d="M 3513 2113 
L 3513 0 
L 2938 0 
L 2938 2094 
Q 2938 2591 2744 2837 
Q 2550 3084 2163 3084 
Q 1697 3084 1428 2787 
Q 1159 2491 1159 1978 
L 1159 0 
L 581 0 
L 581 3500 
L 1159 3500 
L 1159 2956 
Q 1366 3272 1645 3428 
Q 1925 3584 2291 3584 
Q 2894 3584 3203 3211 
Q 3513 2838 3513 2113 
z
" transform="scale(0.015625)"/>
       </defs>
       <use xlink:href="#DejaVuSans-50"/>
       <use xlink:href="#DejaVuSans-72" transform="translate(58.552734 0)"/>
       <use xlink:href="#DejaVuSans-6f" transform="translate(97.416016 0)"/>
       <use xlink:href="#DejaVuSans-78" transform="translate(155.472656 0)"/>
       <use xlink:href="#DejaVuSans-69" transform="translate(214.652344 0)"/>
       <use xlink:href="#DejaVuSans-6d" transform="translate(242.435547 0)"/>
       <use xlink:href="#DejaVuSans-61" transform="translate(339.847656 0)"/>
       <use xlink:href="#DejaVuSans-6c" transform="translate(401.126953 0)"/>
       <use xlink:href="#DejaVuSans-20" transform="translate(428.910156 0)"/>
       <use xlink:href="#DejaVuSans-43" transform="translate(460.697266 0)"/>
       <use xlink:href="#DejaVuSans-6f" transform="translate(530.521484 0)"/>
       <use xlink:href="#DejaVuSans-6c" transform="translate(591.703125 0)"/>
       <use xlink:href="#DejaVuSans-6f" transform="translate(619.486328 0)"/>
       <use xlink:href="#DejaVuSans-6e" transform="translate(680.667969 0)"/>
      </g>
     </g>
    </g>
    <g id="xtick_4">
     <g id="line2d_4">
      <g>
       <use xlink:href="#mb320e95aeb" x="450.127656" y="390.04" style="stroke: #000000; stroke-width: 0.8"/>
      </g>
     </g>
     <g id="text_4">
      <!-- Epithelial cells -->
      <g transform="translate(414.170625 404.638438) scale(0.1 -0.1)">
       <defs>
        <path id="DejaVuSans-45" d="M 628 4666 
L 3578 4666 
L 3578 4134 
L 1259 4134 
L 1259 2753 
L 3481 2753 
L 3481 2222 
L 1259 2222 
L 1259 531 
L 3634 531 
L 3634 0 
L 628 0 
L 628 4666 
z
" transform="scale(0.015625)"/>
        <path id="DejaVuSans-70" d="M 1159 525 
L 1159 -1331 
L 581 -1331 
L 581 3500 
L 1159 3500 
L 1159 2969 
Q 1341 3281 1617 3432 
Q 1894 3584 2278 3584 
Q 2916 3584 3314 3078 
Q 3713 2572 3713 1747 
Q 3713 922 3314 415 
Q 2916 -91 2278 -91 
Q 1894 -91 1617 61 
Q 1341 213 1159 525 
z
M 3116 1747 
Q 3116 2381 2855 2742 
Q 2594 3103 2138 3103 
Q 1681 3103 1420 2742 
Q 1159 2381 1159 1747 
Q 1159 1113 1420 752 
Q 1681 391 2138 391 
Q 2594 391 2855 752 
Q 3116 1113 3116 1747 
z
" transform="scale(0.015625)"/>
       </defs>
       <use xlink:href="#DejaVuSans-45"/>
       <use xlink:href="#DejaVuSans-70" transform="translate(63.183594 0)"/>
       <use xlink:href="#DejaVuSans-69" transform="translate(126.660156 0)"/>
       <use xlink:href="#DejaVuSans-74" transform="translate(154.443359 0)"/>
       <use xlink:href="#DejaVuSans-68" transform="translate(193.652344 0)"/>
       <use xlink:href="#DejaVuSans-65" transform="translate(257.03125 0)"/>
       <use xlink:href="#DejaVuSans-6c" transform="translate(318.554688 0)"/>
       <use xlink:href="#DejaVuSans-69" transform="translate(346.337891 0)"/>
       <use xlink:href="#DejaVuSans-61" transform="translate(374.121094 0)"/>
       <use xlink:href="#DejaVuSans-6c" transform="translate(435.400391 0)"/>
       <use xlink:href="#DejaVuSans-20" transform="translate(463.183594 0)"/>
       <use xlink:href="#DejaVuSans-63" transform="translate(494.970703 0)"/>
       <use xlink:href="#DejaVuSans-65" transform="translate(549.951172 0)"/>
       <use xlink:href="#DejaVuSans-6c" transform="translate(611.474609 0)"/>
       <use xlink:href="#DejaVuSans-6c" transform="translate(639.257812 0)"/>
       <use xlink:href="#DejaVuSans-73" transform="translate(667.041016 0)"/>
      </g>
     </g>
    </g>
   </g>
   <g id="matplotlib.axis_2">
    <g id="ytick_1">
     <g id="line2d_5">
      <defs>
       <path id="mf5660f2f42" d="M 0 0 
L -3.5 0 
" style="stroke: #000000; stroke-width: 0.8"/>
      </defs>
      <g>
       <use xlink:href="#mf5660f2f42" x="47.82125" y="390.04" style="stroke: #000000; stroke-width: 0.8"/>
      </g>
     </g>
     <g id="text_5">
      <!-- 0.0 -->
      <g transform="translate(24.918125 393.839219) scale(0.1 -0.1)">
       <defs>
        <path id="DejaVuSans-30" d="M 2034 4250 
Q 1547 4250 1301 3770 
Q 1056 3291 1056 2328 
Q 1056 1369 1301 889 
Q 1547 409 2034 409 
Q 2525 409 2770 889 
Q 3016 1369 3016 2328 
Q 3016 3291 2770 3770 
Q 2525 4250 2034 4250 
z
M 2034 4750 
Q 2819 4750 3233 4129 
Q 3647 3509 3647 2328 
Q 3647 1150 3233 529 
Q 2819 -91 2034 -91 
Q 1250 -91 836 529 
Q 422 1150 422 2328 
Q 422 3509 836 4129 
Q 1250 4750 2034 4750 
z
" transform="scale(0.015625)"/>
        <path id="DejaVuSans-2e" d="M 684 794 
L 1344 794 
L 1344 0 
L 684 0 
L 684 794 
z
" transform="scale(0.015625)"/>
       </defs>
       <use xlink:href="#DejaVuSans-30"/>
       <use xlink:href="#DejaVuSans-2e" transform="translate(63.623047 0)"/>
       <use xlink:href="#DejaVuSans-30" transform="translate(95.410156 0)"/>
      </g>
     </g>
    </g>
    <g id="ytick_2">
     <g id="line2d_6">
      <g>
       <use xlink:href="#mf5660f2f42" x="47.82125" y="337.704985" style="stroke: #000000; stroke-width: 0.8"/>
      </g>
     </g>
     <g id="text_6">
      <!-- 0.5 -->
      <g transform="translate(24.918125 341.504204) scale(0.1 -0.1)">
       <defs>
        <path id="DejaVuSans-35" d="M 691 4666 
L 3169 4666 
L 3169 4134 
L 1269 4134 
L 1269 2991 
Q 1406 3038 1543 3061 
Q 1681 3084 1819 3084 
Q 2600 3084 3056 2656 
Q 3513 2228 3513 1497 
Q 3513 744 3044 326 
Q 2575 -91 1722 -91 
Q 1428 -91 1123 -41 
Q 819 9 494 109 
L 494 744 
Q 775 591 1075 516 
Q 1375 441 1709 441 
Q 2250 441 2565 725 
Q 2881 1009 2881 1497 
Q 2881 1984 2565 2268 
Q 2250 2553 1709 2553 
Q 1456 2553 1204 2497 
Q 953 2441 691 2322 
L 691 4666 
z
" transform="scale(0.015625)"/>
       </defs>
       <use xlink:href="#DejaVuSans-30"/>
       <use xlink:href="#DejaVuSans-2e" transform="translate(63.623047 0)"/>
       <use xlink:href="#DejaVuSans-35" transform="translate(95.410156 0)"/>
      </g>
     </g>
    </g>
    <g id="ytick_3">
     <g id="line2d_7">
      <g>
       <use xlink:href="#mf5660f2f42" x="47.82125" y="285.369971" style="stroke: #000000; stroke-width: 0.8"/>
      </g>
     </g>
     <g id="text_7">
      <!-- 1.0 -->
      <g transform="translate(24.918125 289.169189) scale(0.1 -0.1)">
       <defs>
        <path id="DejaVuSans-31" d="M 794 531 
L 1825 531 
L 1825 4091 
L 703 3866 
L 703 4441 
L 1819 4666 
L 2450 4666 
L 2450 531 
L 3481 531 
L 3481 0 
L 794 0 
L 794 531 
z
" transform="scale(0.015625)"/>
       </defs>
       <use xlink:href="#DejaVuSans-31"/>
       <use xlink:href="#DejaVuSans-2e" transform="translate(63.623047 0)"/>
       <use xlink:href="#DejaVuSans-30" transform="translate(95.410156 0)"/>
      </g>
     </g>
    </g>
    <g id="ytick_4">
     <g id="line2d_8">
      <g>
       <use xlink:href="#mf5660f2f42" x="47.82125" y="233.034956" style="stroke: #000000; stroke-width: 0.8"/>
      </g>
     </g>
     <g id="text_8">
      <!-- 1.5 -->
      <g transform="translate(24.918125 236.834175) scale(0.1 -0.1)">
       <use xlink:href="#DejaVuSans-31"/>
       <use xlink:href="#DejaVuSans-2e" transform="translate(63.623047 0)"/>
       <use xlink:href="#DejaVuSans-35" transform="translate(95.410156 0)"/>
      </g>
     </g>
    </g>
    <g id="ytick_5">
     <g id="line2d_9">
      <g>
       <use xlink:href="#mf5660f2f42" x="47.82125" y="180.699941" style="stroke: #000000; stroke-width: 0.8"/>
      </g>
     </g>
     <g id="text_9">
      <!-- 2.0 -->
      <g transform="translate(24.918125 184.49916) scale(0.1 -0.1)">
       <defs>
        <path id="DejaVuSans-32" d="M 1228 531 
L 3431 531 
L 3431 0 
L 469 0 
L 469 531 
Q 828 903 1448 1529 
Q 2069 2156 2228 2338 
Q 2531 2678 2651 2914 
Q 2772 3150 2772 3378 
Q 2772 3750 2511 3984 
Q 2250 4219 1831 4219 
Q 1534 4219 1204 4116 
Q 875 4013 500 3803 
L 500 4441 
Q 881 4594 1212 4672 
Q 1544 4750 1819 4750 
Q 2544 4750 2975 4387 
Q 3406 4025 3406 3419 
Q 3406 3131 3298 2873 
Q 3191 2616 2906 2266 
Q 2828 2175 2409 1742 
Q 1991 1309 1228 531 
z
" transform="scale(0.015625)"/>
       </defs>
       <use xlink:href="#DejaVuSans-32"/>
       <use xlink:href="#DejaVuSans-2e" transform="translate(63.623047 0)"/>
       <use xlink:href="#DejaVuSans-30" transform="translate(95.410156 0)"/>
      </g>
     </g>
    </g>
    <g id="ytick_6">
     <g id="line2d_10">
      <g>
       <use xlink:href="#mf5660f2f42" x="47.82125" y="128.364927" style="stroke: #000000; stroke-width: 0.8"/>
      </g>
     </g>
     <g id="text_10">
      <!-- 2.5 -->
      <g transform="translate(24.918125 132.164146) scale(0.1 -0.1)">
       <use xlink:href="#DejaVuSans-32"/>
       <use xlink:href="#DejaVuSans-2e" transform="translate(63.623047 0)"/>
       <use xlink:href="#DejaVuSans-35" transform="translate(95.410156 0)"/>
      </g>
     </g>
    </g>
    <g id="ytick_7">
     <g id="line2d_11">
      <g>
       <use xlink:href="#mf5660f2f42" x="47.82125" y="76.029912" style="stroke: #000000; stroke-width: 0.8"/>
      </g>
     </g>
     <g id="text_11">
      <!-- 3.0 -->
      <g transform="translate(24.918125 79.829131) scale(0.1 -0.1)">
       <defs>
        <path id="DejaVuSans-33" d="M 2597 2516 
Q 3050 2419 3304 2112 
Q 3559 1806 3559 1356 
Q 3559 666 3084 287 
Q 2609 -91 1734 -91 
Q 1441 -91 1130 -33 
Q 819 25 488 141 
L 488 750 
Q 750 597 1062 519 
Q 1375 441 1716 441 
Q 2309 441 2620 675 
Q 2931 909 2931 1356 
Q 2931 1769 2642 2001 
Q 2353 2234 1838 2234 
L 1294 2234 
L 1294 2753 
L 1863 2753 
Q 2328 2753 2575 2939 
Q 2822 3125 2822 3475 
Q 2822 3834 2567 4026 
Q 2313 4219 1838 4219 
Q 1578 4219 1281 4162 
Q 984 4106 628 3988 
L 628 4550 
Q 988 4650 1302 4700 
Q 1616 4750 1894 4750 
Q 2613 4750 3031 4423 
Q 3450 4097 3450 3541 
Q 3450 3153 3228 2886 
Q 3006 2619 2597 2516 
z
" transform="scale(0.015625)"/>
       </defs>
       <use xlink:href="#DejaVuSans-33"/>
       <use xlink:href="#DejaVuSans-2e" transform="translate(63.623047 0)"/>
       <use xlink:href="#DejaVuSans-30" transform="translate(95.410156 0)"/>
      </g>
     </g>
    </g>
    <g id="ytick_8">
     <g id="line2d_12">
      <g>
       <use xlink:href="#mf5660f2f42" x="47.82125" y="23.694898" style="stroke: #000000; stroke-width: 0.8"/>
      </g>
     </g>
     <g id="text_12">
      <!-- 3.5 -->
      <g transform="translate(24.918125 27.494116) scale(0.1 -0.1)">
       <use xlink:href="#DejaVuSans-33"/>
       <use xlink:href="#DejaVuSans-2e" transform="translate(63.623047 0)"/>
       <use xlink:href="#DejaVuSans-35" transform="translate(95.410156 0)"/>
      </g>
     </g>
    </g>
   </g>
   <g id="line2d_13">
    <path d="M 99.546359 224.514633 
L 111.040828 224.514633 
M 105.293594 224.514633 
L 105.293594 84.11074 
M 99.546359 84.11074 
L 111.040828 84.11074 
" clip-path="url(#p847fbfe402)" style="fill: none; stroke: #424242; stroke-width: 0.75; stroke-linecap: square"/>
   </g>
   <g id="line2d_14">
    <path d="M 214.491047 293.878651 
L 225.985516 293.878651 
M 220.238281 293.878651 
L 220.238281 28.859048 
M 214.491047 28.859048 
L 225.985516 28.859048 
" clip-path="url(#p847fbfe402)" style="fill: none; stroke: #424242; stroke-width: 0.75; stroke-linecap: square"/>
   </g>
   <g id="line2d_15">
    <path d="M 329.435734 327.973671 
L 340.930203 327.973671 
M 335.182969 327.973671 
L 335.182969 112.569198 
M 329.435734 112.569198 
L 340.930203 112.569198 
" clip-path="url(#p847fbfe402)" style="fill: none; stroke: #424242; stroke-width: 0.75; stroke-linecap: square"/>
   </g>
   <g id="line2d_16">
    <path d="M 444.380422 307.80842 
L 455.874891 307.80842 
M 450.127656 307.80842 
L 450.127656 45.94656 
M 444.380422 45.94656 
L 455.874891 45.94656 
" clip-path="url(#p847fbfe402)" style="fill: none; stroke: #424242; stroke-width: 0.75; stroke-linecap: square"/>
   </g>
   <g id="patch_7">
    <path d="M 47.82125 390.04 
L 47.82125 10.8 
" style="fill: none; stroke: #000000; stroke-width: 0.8; stroke-linejoin: miter; stroke-linecap: square"/>
   </g>
   <g id="patch_8">
    <path d="M 47.82125 390.04 
L 507.6 390.04 
" style="fill: none; stroke: #000000; stroke-width: 0.8; stroke-linejoin: miter; stroke-linecap: square"/>
   </g>
   <g id="PathCollection_1">
    <defs>
     <path id="C0_0_a8bb2dbf7a" d="M 0 6 
C 1.591219 6 3.117479 5.367802 4.242641 4.242641 
C 5.367802 3.117479 6 1.591219 6 -0 
C 6 -1.591219 5.367802 -3.117479 4.242641 -4.242641 
C 3.117479 -5.367802 1.591219 -6 0 -6 
C -1.591219 -6 -3.117479 -5.367802 -4.242641 -4.242641 
C -5.367802 -3.117479 -6 -1.591219 -6 0 
C -6 1.591219 -5.367802 3.117479 -4.242641 4.242641 
C -3.117479 5.367802 -1.591219 6 0 6 
z
"/>
    </defs>
    <g clip-path="url(#p847fbfe402)">
     <use xlink:href="#C0_0_a8bb2dbf7a" x="70.810188" y="137.31683" style="fill: #ffffff; stroke: #000000; stroke-width: 0.75"/>
    </g>
    <g clip-path="url(#p847fbfe402)">
     <use xlink:href="#C0_0_a8bb2dbf7a" x="70.810188" y="179.885243" style="fill: #ffffff; stroke: #000000; stroke-width: 0.75"/>
    </g>
    <g clip-path="url(#p847fbfe402)">
     <use xlink:href="#C0_0_a8bb2dbf7a" x="70.810188" y="65.602759" style="fill: #ffffff; stroke: #000000; stroke-width: 0.75"/>
    </g>
    <g clip-path="url(#p847fbfe402)">
     <use xlink:href="#C0_0_a8bb2dbf7a" x="83.148953" y="132.369945" style="fill: #ffffff; stroke: #000000; stroke-width: 0.75"/>
    </g>
    <g clip-path="url(#p847fbfe402)">
     <use xlink:href="#C0_0_a8bb2dbf7a" x="70.810188" y="256.388655" style="fill: #ffffff; stroke: #000000; stroke-width: 0.75"/>
    </g>
   </g>
   <g id="PathCollection_2">
    <path d="M 0 438 
C 1.591219 438 3.117479 437.367802 4.242641 436.242641 
C 5.367802 435.117479 6 433.591219 6 432 
C 6 430.408781 5.367802 428.882521 4.242641 427.757359 
C 3.117479 426.632198 1.591219 426 0 426 
C -1.591219 426 -3.117479 426.632198 -4.242641 427.757359 
C -5.367802 428.882521 -6 430.408781 -6 432 
C -6 433.591219 -5.367802 435.117479 -4.242641 436.242641 
C -3.117479 437.367802 -1.591219 438 0 438 
" clip-path="url(#p847fbfe402)" style="fill: none; stroke: #000000; stroke-width: 0.75"/>
   </g>
   <g id="PathCollection_3">
    <path d="M 0 438 
C 1.591219 438 3.117479 437.367802 4.242641 436.242641 
C 5.367802 435.117479 6 433.591219 6 432 
C 6 430.408781 5.367802 428.882521 4.242641 427.757359 
C 3.117479 426.632198 1.591219 426 0 426 
C -1.591219 426 -3.117479 426.632198 -4.242641 427.757359 
C -5.367802 428.882521 -6 430.408781 -6 432 
C -6 433.591219 -5.367802 435.117479 -4.242641 436.242641 
C -3.117479 437.367802 -1.591219 438 0 438 
" clip-path="url(#p847fbfe402)" style="fill: none; stroke: #000000; stroke-width: 0.75"/>
   </g>
   <g id="PathCollection_4">
    <path d="M 0 438 
C 1.591219 438 3.117479 437.367802 4.242641 436.242641 
C 5.367802 435.117479 6 433.591219 6 432 
C 6 430.408781 5.367802 428.882521 4.242641 427.757359 
C 3.117479 426.632198 1.591219 426 0 426 
C -1.591219 426 -3.117479 426.632198 -4.242641 427.757359 
C -5.367802 428.882521 -6 430.408781 -6 432 
C -6 433.591219 -5.367802 435.117479 -4.242641 436.242641 
C -3.117479 437.367802 -1.591219 438 0 438 
" clip-path="url(#p847fbfe402)" style="fill: none; stroke: #000000; stroke-width: 0.75"/>
   </g>
   <g id="PathCollection_5">
    <path d="M 0 438 
C 1.591219 438 3.117479 437.367802 4.242641 436.242641 
C 5.367802 435.117479 6 433.591219 6 432 
C 6 430.408781 5.367802 428.882521 4.242641 427.757359 
C 3.117479 426.632198 1.591219 426 0 426 
C -1.591219 426 -3.117479 426.632198 -4.242641 427.757359 
C -5.367802 428.882521 -6 430.408781 -6 432 
C -6 433.591219 -5.367802 435.117479 -4.242641 436.242641 
C -3.117479 437.367802 -1.591219 438 0 438 
" clip-path="url(#p847fbfe402)" style="fill: none; stroke: #000000; stroke-width: 0.75"/>
   </g>
   <g id="PathCollection_6">
    <defs>
     <path id="C1_0_9bb1296737" d="M 0 6 
C 1.591219 6 3.117479 5.367802 4.242641 4.242641 
C 5.367802 3.117479 6 1.591219 6 -0 
C 6 -1.591219 5.367802 -3.117479 4.242641 -4.242641 
C 3.117479 -5.367802 1.591219 -6 0 -6 
C -1.591219 -6 -3.117479 -5.367802 -4.242641 -4.242641 
C -5.367802 -3.117479 -6 -1.591219 -6 0 
C -6 1.591219 -5.367802 3.117479 -4.242641 4.242641 
C -3.117479 5.367802 -1.591219 6 0 6 
z
"/>
    </defs>
    <g clip-path="url(#p847fbfe402)">
     <use xlink:href="#C1_0_9bb1296737" x="208.743813" y="53.408846" style="fill: #ffffff; stroke: #000000; stroke-width: 0.75"/>
    </g>
    <g clip-path="url(#p847fbfe402)">
     <use xlink:href="#C1_0_9bb1296737" x="208.743813" y="390.04" style="fill: #ffffff; stroke: #000000; stroke-width: 0.75"/>
    </g>
    <g clip-path="url(#p847fbfe402)">
     <use xlink:href="#C1_0_9bb1296737" x="208.743813" y="119.734909" style="fill: #ffffff; stroke: #000000; stroke-width: 0.75"/>
    </g>
    <g clip-path="url(#p847fbfe402)">
     <use xlink:href="#C1_0_9bb1296737" x="208.743813" y="148.565478" style="fill: #ffffff; stroke: #000000; stroke-width: 0.75"/>
    </g>
    <g clip-path="url(#p847fbfe402)">
     <use xlink:href="#C1_0_9bb1296737" x="208.743813" y="95.095013" style="fill: #ffffff; stroke: #000000; stroke-width: 0.75"/>
    </g>
   </g>
   <g id="PathCollection_7">
    <path d="M 0 438 
C 1.591219 438 3.117479 437.367802 4.242641 436.242641 
C 5.367802 435.117479 6 433.591219 6 432 
C 6 430.408781 5.367802 428.882521 4.242641 427.757359 
C 3.117479 426.632198 1.591219 426 0 426 
C -1.591219 426 -3.117479 426.632198 -4.242641 427.757359 
C -5.367802 428.882521 -6 430.408781 -6 432 
C -6 433.591219 -5.367802 435.117479 -4.242641 436.242641 
C -3.117479 437.367802 -1.591219 438 0 438 
" clip-path="url(#p847fbfe402)" style="fill: none; stroke: #000000; stroke-width: 0.75"/>
   </g>
   <g id="PathCollection_8">
    <path d="M 0 438 
C 1.591219 438 3.117479 437.367802 4.242641 436.242641 
C 5.367802 435.117479 6 433.591219 6 432 
C 6 430.408781 5.367802 428.882521 4.242641 427.757359 
C 3.117479 426.632198 1.591219 426 0 426 
C -1.591219 426 -3.117479 426.632198 -4.242641 427.757359 
C -5.367802 428.882521 -6 430.408781 -6 432 
C -6 433.591219 -5.367802 435.117479 -4.242641 436.242641 
C -3.117479 437.367802 -1.591219 438 0 438 
" clip-path="url(#p847fbfe402)" style="fill: none; stroke: #000000; stroke-width: 0.75"/>
   </g>
   <g id="PathCollection_9">
    <path d="M 0 438 
C 1.591219 438 3.117479 437.367802 4.242641 436.242641 
C 5.367802 435.117479 6 433.591219 6 432 
C 6 430.408781 5.367802 428.882521 4.242641 427.757359 
C 3.117479 426.632198 1.591219 426 0 426 
C -1.591219 426 -3.117479 426.632198 -4.242641 427.757359 
C -5.367802 428.882521 -6 430.408781 -6 432 
C -6 433.591219 -5.367802 435.117479 -4.242641 436.242641 
C -3.117479 437.367802 -1.591219 438 0 438 
" clip-path="url(#p847fbfe402)" style="fill: none; stroke: #000000; stroke-width: 0.75"/>
   </g>
   <g id="PathCollection_10">
    <path d="M 0 438 
C 1.591219 438 3.117479 437.367802 4.242641 436.242641 
C 5.367802 435.117479 6 433.591219 6 432 
C 6 430.408781 5.367802 428.882521 4.242641 427.757359 
C 3.117479 426.632198 1.591219 426 0 426 
C -1.591219 426 -3.117479 426.632198 -4.242641 427.757359 
C -5.367802 428.882521 -6 430.408781 -6 432 
C -6 433.591219 -5.367802 435.117479 -4.242641 436.242641 
C -3.117479 437.367802 -1.591219 438 0 438 
" clip-path="url(#p847fbfe402)" style="fill: none; stroke: #000000; stroke-width: 0.75"/>
   </g>
   <g id="PathCollection_11">
    <defs>
     <path id="C2_0_bd47504673" d="M 0 6 
C 1.591219 6 3.117479 5.367802 4.242641 4.242641 
C 5.367802 3.117479 6 1.591219 6 -0 
C 6 -1.591219 5.367802 -3.117479 4.242641 -4.242641 
C 3.117479 -5.367802 1.591219 -6 0 -6 
C -1.591219 -6 -3.117479 -5.367802 -4.242641 -4.242641 
C -5.367802 -3.117479 -6 -1.591219 -6 0 
C -6 1.591219 -5.367802 3.117479 -4.242641 4.242641 
C -3.117479 5.367802 -1.591219 6 0 6 
z
"/>
    </defs>
    <g clip-path="url(#p847fbfe402)">
     <use xlink:href="#C2_0_bd47504673" x="346.677438" y="145.540631" style="fill: #ffffff; stroke: #000000; stroke-width: 0.75"/>
    </g>
    <g clip-path="url(#p847fbfe402)">
     <use xlink:href="#C2_0_bd47504673" x="346.677438" y="263.068524" style="fill: #ffffff; stroke: #000000; stroke-width: 0.75"/>
    </g>
    <g clip-path="url(#p847fbfe402)">
     <use xlink:href="#C2_0_bd47504673" x="346.677438" y="390.04" style="fill: #ffffff; stroke: #000000; stroke-width: 0.75"/>
    </g>
    <g clip-path="url(#p847fbfe402)">
     <use xlink:href="#C2_0_bd47504673" x="343.488364" y="133.157666" style="fill: #ffffff; stroke: #000000; stroke-width: 0.75"/>
    </g>
    <g clip-path="url(#p847fbfe402)">
     <use xlink:href="#C2_0_bd47504673" x="346.677438" y="169.550351" style="fill: #ffffff; stroke: #000000; stroke-width: 0.75"/>
    </g>
   </g>
   <g id="PathCollection_12">
    <path d="M 0 438 
C 1.591219 438 3.117479 437.367802 4.242641 436.242641 
C 5.367802 435.117479 6 433.591219 6 432 
C 6 430.408781 5.367802 428.882521 4.242641 427.757359 
C 3.117479 426.632198 1.591219 426 0 426 
C -1.591219 426 -3.117479 426.632198 -4.242641 427.757359 
C -5.367802 428.882521 -6 430.408781 -6 432 
C -6 433.591219 -5.367802 435.117479 -4.242641 436.242641 
C -3.117479 437.367802 -1.591219 438 0 438 
" clip-path="url(#p847fbfe402)" style="fill: none; stroke: #000000; stroke-width: 0.75"/>
   </g>
   <g id="PathCollection_13">
    <path d="M 0 438 
C 1.591219 438 3.117479 437.367802 4.242641 436.242641 
C 5.367802 435.117479 6 433.591219 6 432 
C 6 430.408781 5.367802 428.882521 4.242641 427.757359 
C 3.117479 426.632198 1.591219 426 0 426 
C -1.591219 426 -3.117479 426.632198 -4.242641 427.757359 
C -5.367802 428.882521 -6 430.408781 -6 432 
C -6 433.591219 -5.367802 435.117479 -4.242641 436.242641 
C -3.117479 437.367802 -1.591219 438 0 438 
" clip-path="url(#p847fbfe402)" style="fill: none; stroke: #000000; stroke-width: 0.75"/>
   </g>
   <g id="PathCollection_14">
    <path d="M 0 438 
C 1.591219 438 3.117479 437.367802 4.242641 436.242641 
C 5.367802 435.117479 6 433.591219 6 432 
C 6 430.408781 5.367802 428.882521 4.242641 427.757359 
C 3.117479 426.632198 1.591219 426 0 426 
C -1.591219 426 -3.117479 426.632198 -4.242641 427.757359 
C -5.367802 428.882521 -6 430.408781 -6 432 
C -6 433.591219 -5.367802 435.117479 -4.242641 436.242641 
C -3.117479 437.367802 -1.591219 438 0 438 
" clip-path="url(#p847fbfe402)" style="fill: none; stroke: #000000; stroke-width: 0.75"/>
   </g>
   <g id="PathCollection_15">
    <path d="M 0 438 
C 1.591219 438 3.117479 437.367802 4.242641 436.242641 
C 5.367802 435.117479 6 433.591219 6 432 
C 6 430.408781 5.367802 428.882521 4.242641 427.757359 
C 3.117479 426.632198 1.591219 426 0 426 
C -1.591219 426 -3.117479 426.632198 -4.242641 427.757359 
C -5.367802 428.882521 -6 430.408781 -6 432 
C -6 433.591219 -5.367802 435.117479 -4.242641 436.242641 
C -3.117479 437.367802 -1.591219 438 0 438 
" clip-path="url(#p847fbfe402)" style="fill: none; stroke: #000000; stroke-width: 0.75"/>
   </g>
   <g id="PathCollection_16">
    <defs>
     <path id="C3_0_d405236671" d="M 0 6 
C 1.591219 6 3.117479 5.367802 4.242641 4.242641 
C 5.367802 3.117479 6 1.591219 6 -0 
C 6 -1.591219 5.367802 -3.117479 4.242641 -4.242641 
C 3.117479 -5.367802 1.591219 -6 0 -6 
C -1.591219 -6 -3.117479 -5.367802 -4.242641 -4.242641 
C -5.367802 -3.117479 -6 -1.591219 -6 0 
C -6 1.591219 -5.367802 3.117479 -4.242641 4.242641 
C -3.117479 5.367802 -1.591219 6 0 6 
z
"/>
    </defs>
    <g clip-path="url(#p847fbfe402)">
     <use xlink:href="#C3_0_d405236671" x="484.611062" y="105.020291" style="fill: #ffffff; stroke: #000000; stroke-width: 0.75"/>
    </g>
    <g clip-path="url(#p847fbfe402)">
     <use xlink:href="#C3_0_d405236671" x="484.611062" y="129.124537" style="fill: #ffffff; stroke: #000000; stroke-width: 0.75"/>
    </g>
    <g clip-path="url(#p847fbfe402)">
     <use xlink:href="#C3_0_d405236671" x="484.611062" y="205.31286" style="fill: #ffffff; stroke: #000000; stroke-width: 0.75"/>
    </g>
    <g clip-path="url(#p847fbfe402)">
     <use xlink:href="#C3_0_d405236671" x="484.611062" y="390.04" style="fill: #ffffff; stroke: #000000; stroke-width: 0.75"/>
    </g>
    <g clip-path="url(#p847fbfe402)">
     <use xlink:href="#C3_0_d405236671" x="484.611062" y="54.889761" style="fill: #ffffff; stroke: #000000; stroke-width: 0.75"/>
    </g>
   </g>
  </g>
 </g>
 <defs>
  <clipPath id="p847fbfe402">
   <rect x="47.82125" y="10.8" width="459.77875" height="379.24"/>
  </clipPath>
 </defs>
</svg>
